<svg width="119" height="62" viewBox="0 0 119 62" fill="none" xmlns="http://www.w3.org/2000/svg">
<g clip-path="url(#clip0_4433_89155)">
<rect width="119" height="62" rx="31" fill="#414141"/>
<path fill-rule="evenodd" clip-rule="evenodd" d="M12.8773 46.7617L5.71822 46.6618C-7.38305 46.4791 -13.7232 30.5476 -4.32998 21.4128L22.054 -4.24504C32.4196 -14.3254 49.1771 -4.96872 46.8419 8.61818L55.6688 3.51141L76.0087 38.6685C80.9543 47.2169 76.2363 58.1134 66.6184 60.3561L29.2373 69.0725C18.3253 71.6169 8.68965 61.512 11.7497 50.7332L12.8773 46.7617Z" fill="#F47FCC"/>
<path fill-rule="evenodd" clip-rule="evenodd" d="M75.4961 56.0735C73.748 62.5977 75.8435 69.5492 80.906 74.0203L84.8708 77.5219C87.311 79.677 90.2175 81.2371 93.3621 82.0797C96.3925 82.8917 99.566 83.0164 102.651 82.4448L108.571 81.3478C115.227 80.1145 120.582 75.1649 122.334 68.626C124.062 62.1759 121.983 55.3038 116.969 50.894L112.259 46.7525C109.886 44.6655 107.063 43.1542 104.011 42.3362C100.844 41.4877 97.5204 41.4095 94.3174 42.1081L88.8952 43.2907C82.3893 44.7096 77.2196 49.6416 75.4961 56.0735ZM102.621 67.3611C103.347 64.6527 101.739 61.8688 99.0308 61.1431C96.3224 60.4173 93.5385 62.0246 92.8128 64.7331C92.087 67.4415 93.6943 70.2254 96.4028 70.9511C99.1112 71.6769 101.895 70.0696 102.621 67.3611Z" fill="#008ECB"/>
<path d="M111.345 -27L131.848 -7.49837L88.114 41.5341L67.6106 22.0325L111.345 -27Z" fill="#DBBB1E"/>
</g>
<defs>
<clipPath id="clip0_4433_89155">
<rect width="119" height="62" rx="31" fill="white"/>
</clipPath>
</defs>
</svg>
