<svg width="25" height="24" viewBox="0 0 25 24" fill="none" xmlns="http://www.w3.org/2000/svg">
<path d="M19.1365 12.3594C19.1365 12.5573 19.0583 12.7318 18.9021 12.8828L13.7068 18.0625C13.5557 18.2083 13.3865 18.2812 13.199 18.2812C13.0063 18.2812 12.8448 18.2161 12.7146 18.0859C12.5844 17.9609 12.5193 17.8021 12.5193 17.6094C12.5193 17.5156 12.5349 17.4271 12.5662 17.3438C12.5974 17.2552 12.6443 17.1797 12.7068 17.1172L14.4568 15.3359L17.5583 12.5156L17.7146 12.8984L15.199 13.0547H5.31616C5.11304 13.0547 4.94637 12.9896 4.81616 12.8594C4.69116 12.7292 4.62866 12.5625 4.62866 12.3594C4.62866 12.1562 4.69116 11.9896 4.81616 11.8594C4.94637 11.7292 5.11304 11.6641 5.31616 11.6641H15.199L17.7146 11.8203L17.5583 12.2109L14.4568 9.38281L12.7068 7.60156C12.6443 7.53906 12.5974 7.46615 12.5662 7.38281C12.5349 7.29427 12.5193 7.20312 12.5193 7.10938C12.5193 6.91667 12.5844 6.75781 12.7146 6.63281C12.8448 6.5026 13.0063 6.4375 13.199 6.4375C13.2927 6.4375 13.3813 6.45573 13.4646 6.49219C13.5531 6.52865 13.6391 6.58854 13.7224 6.67188L18.9021 11.8359C19.0583 11.987 19.1365 12.1615 19.1365 12.3594Z" fill="white"/>
</svg>
