<svg width="13" height="15" viewBox="0 0 13 15" fill="none" xmlns="http://www.w3.org/2000/svg">
<path d="M6.64062 5.40245e-07C6.44271 5.48897e-07 6.26823 0.0781256 6.11719 0.234376L0.9375 5.42969C0.791666 5.58073 0.71875 5.75 0.71875 5.9375C0.71875 6.13021 0.783854 6.29167 0.914062 6.42188C1.03906 6.55208 1.19792 6.61719 1.39062 6.61719C1.48437 6.61719 1.57292 6.60156 1.65625 6.57031C1.74479 6.53906 1.82031 6.49219 1.88281 6.42969L3.66406 4.67969L6.48437 1.57813L6.10156 1.42188L5.94531 3.9375L5.94531 13.8203C5.94531 14.0234 6.01042 14.1901 6.14062 14.3203C6.27083 14.4453 6.4375 14.5078 6.64062 14.5078C6.84375 14.5078 7.01042 14.4453 7.14062 14.3203C7.27083 14.1901 7.33594 14.0234 7.33594 13.8203L7.33594 3.9375L7.17969 1.42188L6.78906 1.57813L9.61719 4.67969L11.3984 6.42969C11.4609 6.49219 11.5339 6.53906 11.6172 6.57031C11.7057 6.60156 11.7969 6.61719 11.8906 6.61719C12.0833 6.61719 12.2422 6.55208 12.3672 6.42188C12.4974 6.29167 12.5625 6.13021 12.5625 5.9375C12.5625 5.84375 12.5443 5.75521 12.5078 5.67188C12.4714 5.58333 12.4115 5.4974 12.3281 5.41406L7.16406 0.234376C7.01302 0.0781255 6.83854 5.31594e-07 6.64062 5.40245e-07Z" fill="black"/>
</svg>
