<svg width="157" height="100" viewBox="0 0 157 100" fill="none" xmlns="http://www.w3.org/2000/svg">
<mask id="mask0_5001_6347" style="mask-type:luminance" maskUnits="userSpaceOnUse" x="61" y="32" width="36" height="36">
<path d="M96.248 32.5H61.248V67.5H96.248V32.5Z" fill="white"/>
</mask>
<g mask="url(#mask0_5001_6347)">
<mask id="mask1_5001_6347" style="mask-type:luminance" maskUnits="userSpaceOnUse" x="61" y="32" width="36" height="36">
<path d="M96.248 32.5H61.248V67.5H96.248V32.5Z" fill="white"/>
</mask>
<g mask="url(#mask1_5001_6347)">
<path d="M96.248 32.5H61.248V67.5H96.248V32.5Z" fill="#BEBEBE"/>
<path d="M71.8949 35.1924L69.3226 40.5346L66.7503 35.1924H63.9434V43.2674H65.9107V37.489L68.4254 42.3702H70.2198L72.7345 37.489V43.2674H74.7059V35.1924H71.8949Z" fill="white"/>
<path d="M84.5664 35.1924V36.8016H88.0812L88.0727 43.2674H90.0403L90.0484 36.8016H93.5672V35.1924H84.5664Z" fill="white"/>
<path d="M91.596 62.112C91.5467 62.4328 91.4188 62.6962 91.2092 62.8981C91.0113 63.0875 90.7479 63.2189 90.419 63.297C90.0937 63.3711 89.6203 63.4164 89.1142 63.4164C88.608 63.4164 88.1306 63.3509 87.7393 63.2149C87.361 63.0875 87.0604 62.8609 86.8504 62.5441C86.6363 62.2273 86.5295 61.766 86.5295 61.1818V60.3543C86.5295 59.7661 86.6363 59.3093 86.8504 58.992C87.0604 58.6752 87.361 58.4531 87.7393 58.3212C88.1306 58.1897 88.5914 58.1197 89.1142 58.1197C89.6369 58.1197 90.0937 58.161 90.419 58.2391C90.7479 58.3131 91.0113 58.4491 91.2092 58.638C91.4147 58.8399 91.5467 59.1033 91.596 59.4241H93.5672C93.5138 58.7573 93.2877 58.1897 92.8924 57.7369C92.5303 57.3212 92.0322 57.0166 91.4107 56.8314C90.8058 56.6503 90.0156 56.5557 89.1182 56.5557C88.1759 56.5557 87.3565 56.6915 86.6817 56.959C85.9987 57.2306 85.4719 57.6833 85.1094 58.305C84.7598 58.9018 84.5785 59.6961 84.5664 60.6716V60.7618L84.6732 60.7658L84.5664 60.7703V60.8605C84.5785 61.836 84.7598 62.6302 85.1094 63.227C85.4719 63.8485 86.0028 64.3013 86.6817 64.5732C87.3525 64.8406 88.1719 64.9766 89.1182 64.9766C90.065 64.9766 90.8099 64.8819 91.4107 64.7006C92.0322 64.5153 92.5303 64.2111 92.8924 63.7951C93.2877 63.3423 93.5138 62.7747 93.5672 62.1079L91.596 62.112Z" fill="white"/>
</g>
</g>
</svg>
