<svg width="157" height="100" viewBox="0 0 157 100" fill="none" xmlns="http://www.w3.org/2000/svg">
<path d="M27.03 38.3382L21.2246 44.1909V55.8526V67.5H27.102H32.965L38.7271 61.6908L44.4892 55.8817H38.6983H32.893L32.8642 44.1909L32.821 32.5L27.03 38.3382Z" fill="#BEBEBE"/>
<path d="M38.7308 38.31L32.9688 44.1191H38.774H44.565V55.7665V67.4284L50.3272 61.6191L56.0893 55.81V44.1627V32.501H50.2839H44.493L38.7308 38.31Z" fill="#BEBEBE"/>
<path d="M101.259 37.9603C98.867 38.396 96.8071 39.4997 95.0492 41.2861C92.8164 43.5517 91.8371 45.9188 91.7079 49.4188C91.549 53.2964 92.6872 56.23 95.3381 58.8586C97.0663 60.5578 98.9106 61.5598 101.244 62.0536C105.177 62.8669 109.268 61.618 112.221 58.6843C112.883 58.0453 113.416 57.45 113.416 57.3773C113.416 57.3192 112.581 56.4188 111.572 55.4022L109.729 53.5433L109.311 54.1387C109.066 54.4582 108.504 55.0101 108.043 55.3732C104.845 57.842 100.092 56.8545 98.4489 53.369C96.8071 49.869 98.0605 45.3524 101.1 43.9147C103.592 42.7238 106.531 43.2466 108.721 45.2944L109.325 45.8462L111.184 43.9728L113.042 42.0848L112.249 41.3151C109.297 38.4251 105.335 37.2197 101.259 37.9603Z" fill="#BEBEBE"/>
<path d="M67.7578 50.0024V61.6932H70.7829H73.8083V52.6165V43.5398H78.4178H83.0273V52.6165V61.6932H86.0525H89.0778V50.0024V38.3115H78.4178H67.7578V50.0024Z" fill="#BEBEBE"/>
<path d="M115.582 50.013V61.7038L122.54 61.6457C129.051 61.6022 129.541 61.5731 130.348 61.2972C131.63 60.8615 132.307 60.4694 133.186 59.6707C134.799 58.1893 135.533 55.7786 135.188 53.1934C134.799 50.4051 133.084 48.43 130.275 47.5151C129.627 47.3117 128.749 47.2537 125.594 47.181L121.704 47.0939V45.3512V43.6084L127.509 43.5648L133.301 43.5358L133.272 40.9508L133.228 38.3802L124.413 38.3367L115.582 38.3076V50.013ZM128.158 52.5109C128.922 53.0047 129.166 53.5566 129.095 54.6167C129.037 55.3864 128.979 55.5316 128.518 55.9673C128.23 56.2288 127.755 56.5047 127.438 56.5918C127.135 56.6789 125.709 56.7515 124.269 56.7515H121.633V54.4133V52.0897L124.629 52.1333C127.467 52.1768 127.639 52.1914 128.158 52.5109Z" fill="#BEBEBE"/>
</svg>
