<svg width="157" height="100" viewBox="0 0 157 100" fill="none" xmlns="http://www.w3.org/2000/svg">
<mask id="mask0_5001_6361" style="mask-type:luminance" maskUnits="userSpaceOnUse" x="43" y="32" width="71" height="36">
<path d="M113.248 32.5H43.248V67.5H113.248V32.5Z" fill="white"/>
</mask>
<g mask="url(#mask0_5001_6361)">
<path d="M64.8686 43.4339H69.3112V44.9114H67.1978V55.2934H64.8686V43.4339ZM71.945 50.8412L72.3442 44.9114H72.4779L72.8771 50.8412H71.945ZM69.3656 55.2934H71.6461L71.8619 52.1438H72.9601L73.1769 55.2934H75.4565L74.2417 43.4339H70.5803L69.3656 55.2934ZM78.7921 51.1426V53.3784C78.7921 53.6797 79.0212 53.7672 79.1553 53.7672C79.3749 53.7672 79.5276 53.5825 79.5276 53.3784V50.6178C79.5276 50.2483 79.4608 49.8401 78.5916 49.8401H77.6461V48.5375H78.6298C79.289 48.5375 79.5276 48.382 79.5276 47.6528V45.3003C79.5276 45.0961 79.3749 44.9114 79.1548 44.9114C79.0212 44.9114 78.7921 44.9892 78.7921 45.3003V47.2347H76.4619V45.5531C76.4619 44.7268 76.5574 43.4339 78.1902 43.4339H80.1194C81.7528 43.4339 81.8578 44.7268 81.8578 45.5531V47.4486C81.8578 48.7415 80.9695 49.0915 80.2722 49.0623V49.1789C81.8387 49.1401 81.8578 50.3648 81.8578 50.7829V53.1743C81.8578 54.0102 81.7528 55.2934 80.1194 55.2934H78.1902C76.5574 55.2934 76.4619 54.0101 76.4619 53.1742V51.1426H78.7921ZM83.3856 43.4339H88.7814V55.2934H86.4512V44.9114H85.7157V55.2934H83.3856V43.4339ZM92.6394 49.9567V44.9115H92.9453C93.1935 44.9115 93.3749 45.1253 93.3749 45.5045V49.3637C93.3749 49.7429 93.1935 49.9566 92.9448 49.9566L92.6394 49.9567ZM90.3092 55.2934H92.6394V51.2592H93.9762C95.6 51.2592 95.705 49.976 95.705 49.14V45.5531C95.705 44.7268 95.6 43.4339 93.9762 43.4339H90.3092V55.2934ZM100.299 53.3784C100.299 53.5825 100.146 53.7672 99.9257 53.7672C99.7921 53.7672 99.563 53.6797 99.563 53.3784V45.3003C99.563 44.9892 99.7921 44.9114 99.9257 44.9114C100.146 44.9114 100.299 45.0961 100.299 45.3003V53.3784ZM97.2328 53.1743C97.2328 54.0102 97.3378 55.2934 98.9616 55.2934H100.9C102.524 55.2934 102.629 54.0101 102.629 53.1742V45.5531C102.629 44.7268 102.524 43.4339 100.9 43.4339H98.9616C97.3378 43.4339 97.2328 44.7268 97.2328 45.5531V53.1743ZM110.211 43.4339H113.248V55.2934H110.918V47.8569H110.832L109.629 55.2934H107.766L106.573 47.8569H106.487V55.2934H104.156V43.4339H107.184L108.702 51.7744L110.211 43.4339ZM61.8489 39.0595C61.1356 35.8808 59.3478 33.295 59.1014 32.877C58.7118 33.4699 57.286 35.7544 56.5612 38.2818C55.7695 41.1105 55.653 43.6186 55.9263 46.0779C56.1974 48.547 57.222 51.0843 57.222 51.0843C57.7664 52.4063 58.5819 53.8352 59.113 54.5352C59.8912 53.5048 61.6799 50.4329 62.2376 46.4279C62.548 44.1921 62.5614 42.2383 61.8489 39.0595ZM59.1014 53.7381C58.751 53.0673 58.2066 51.7938 58.155 49.8107C58.1417 47.9055 58.8933 46.2626 59.113 45.9225C59.3087 46.2627 59.9561 47.6916 60.0335 49.6456C60.086 51.5509 59.4634 53.0575 59.1014 53.7381ZM61.6418 44.4545C61.615 45.6697 61.4726 46.9528 61.2912 47.7208C61.3561 46.3988 61.2005 44.5421 60.9025 43.084C60.6046 41.6355 59.7613 39.2053 59.0881 38.0874C58.4665 39.1567 57.7004 41.2564 57.2994 43.0743C56.8964 44.892 56.885 47.0987 56.885 47.7597C56.7779 47.2055 56.5106 45.2129 56.586 43.22C56.6491 41.5773 57.0272 39.8761 57.2345 39.0984C58.0251 36.503 58.92 34.8407 59.088 34.5781C59.2562 34.8407 60.383 36.8918 60.9674 39.04C61.5491 41.1884 61.6665 43.2491 61.6418 44.4545Z" fill="#BEBEBE"/>
<path d="M60.3116 55.2737H54.8883V58.9774C54.8931 58.9774 54.8969 58.9676 54.9017 58.9676C56.1794 57.665 58.2518 57.665 59.5305 58.9676C60.8082 60.2605 60.8082 62.3699 59.5305 63.6725C59.5247 63.682 59.519 63.6821 59.5133 63.6921C59.5066 63.6921 59.4999 63.7017 59.4941 63.7112C58.2192 64.9946 56.5538 65.6362 54.8883 65.6362C53.2152 65.6362 51.542 64.9946 50.2662 63.6921C48.0162 61.4075 47.7498 57.8594 49.4649 55.2737C49.7004 54.9179 49.9687 54.5859 50.2662 54.2821C51.542 52.9796 53.2152 52.3379 54.8883 52.3379V43.4336C48.4594 43.4336 43.248 48.7315 43.248 55.2737C43.248 61.8158 48.4594 67.1237 54.8883 67.1237C58.2402 67.1237 61.2599 65.6749 63.3838 63.3713V55.2737H60.3116ZM113.248 58.758H64.8688V67.1237H113.248V58.758ZM109.064 64.5979H109.679V63.3352H109.064V64.5979ZM109.064 62.3882H109.994L110.615 62.704L110.769 63.0197L110.922 63.6508V63.9668C110.906 66.228 109.477 65.4002 107.974 65.545V60.3364H109.064V62.3882ZM100.996 60.3364V61.2833H100.221V65.545H98.9855V61.2833H98.2102V60.3364H100.996ZM89.6819 64.1243H89.8352L90.1422 63.9668V61.7568H89.6819V64.1243ZM88.4384 61.7569H87.9696V63.9668L88.2846 64.1243H88.4384V61.7569ZM89.6819 60.3364V60.8098H90.4572L90.9175 61.1255L91.2325 61.4412L91.3858 62.0726V63.8088L91.2325 64.4404L90.9175 64.7559L90.4572 65.0714H89.6819V65.545H88.4384V65.0714H87.663L87.1943 64.7559L86.8877 64.4404L86.734 63.8088V62.0726L86.8877 61.4412L87.1943 61.1255L87.663 60.8098H88.4384V60.3364H89.6819ZM79.5998 60.3364V61.2833H78.6691V62.3882H79.5998V63.3352H78.6691V64.5979H79.7546V65.545H77.4287V60.3364H79.5998ZM68.4353 62.3882H69.0555V60.3364H70.1409V65.545H69.0555V63.3352H68.4353V65.545H67.1947V60.3364H68.4353V62.3882Z" fill="#BEBEBE"/>
</g>
</svg>
