<svg width="157" height="100" viewBox="0 0 157 100" fill="none" xmlns="http://www.w3.org/2000/svg">
<g clip-path="url(#clip0_5001_6368)">
<mask id="mask0_5001_6368" style="mask-type:luminance" maskUnits="userSpaceOnUse" x="-4" y="40" width="165" height="20">
<path d="M160.748 40H-3.25195V60H160.748V40Z" fill="white"/>
</mask>
<g mask="url(#mask0_5001_6368)">
<path d="M18.502 43.5762H27.6692V52.778H21.4244V56.7182H18.502V43.5762ZM21.4244 49.943H24.7467V46.3872H21.4244V49.943Z" fill="#BEBEBE"/>
<path d="M30.1152 43.5762H39.2824V56.7182H30.1152V43.5762ZM33.0378 53.8831H36.36V46.3872H33.0378V53.8831Z" fill="#BEBEBE"/>
<path d="M41.8066 43.5762H50.9738V47.6605H48.0513V46.3872H44.7291V53.8831H48.0513V52.6098H50.9738V56.6941H41.8066V43.5762Z" fill="#BEBEBE"/>
<path d="M53.3203 43.5762H61.4135V46.3872H56.2428V56.6941H53.3203V43.5762Z" fill="#BEBEBE"/>
<path d="M63.2422 43.5762H72.4094V56.7182H63.2422V43.5762ZM66.1647 53.8831H69.4869V46.3872H66.1647V53.8831Z" fill="#BEBEBE"/>
<path d="M74.9258 43.5762H84.0934V47.6605H81.1709V46.3872H77.8484V53.8831H81.1709V52.6098H84.0934V56.6941H74.9258V43.5762Z" fill="#BEBEBE"/>
<path d="M86.4473 43.5762H95.6142V47.6605H92.6924V46.3872H89.3698V53.8831H92.6924V52.6098H95.6142V56.6941H86.4473V43.5762Z" fill="#BEBEBE"/>
<path d="M97.2578 43.5762H106.425V46.3872H103.303V56.6941H100.38V46.3872H97.2578V43.5762Z" fill="#BEBEBE"/>
<path d="M108.273 43.5762H117.44V52.778H111.196V56.7182H108.273V43.5762ZM111.196 49.943H114.518V46.3872H111.196V49.943Z" fill="#BEBEBE"/>
<path d="M120.189 43.5762H127.183L128.507 56.6941H125.584L125.285 53.5948H122.063L121.762 56.6941H118.84L120.189 43.5762ZM122.312 50.7838H125.01L124.585 46.3632H122.737L122.312 50.7838Z" fill="#BEBEBE"/>
<path d="M135.078 51.4806H134.304L132.506 56.6941H129.383L131.906 50.0631L130.582 46.3872L129.583 43.5762H132.705L134.304 48.6696H135.078L136.677 43.5762H139.799L137.476 50.0631L139.999 56.6941H136.877L135.078 51.4806Z" fill="#BEBEBE"/>
</g>
</g>
<defs>
<clipPath id="clip0_5001_6368">
<rect width="156.5" height="100" fill="white" transform="translate(0.498047)"/>
</clipPath>
</defs>
</svg>
