<svg width="157" height="100" viewBox="0 0 157 100" fill="none" xmlns="http://www.w3.org/2000/svg">
<mask id="mask0_5001_6314" style="mask-type:luminance" maskUnits="userSpaceOnUse" x="12" y="32" width="132" height="36">
<path d="M143.771 32.5H12.7246V67.5H143.771V32.5Z" fill="white"/>
</mask>
<g mask="url(#mask0_5001_6314)">
<mask id="mask1_5001_6314" style="mask-type:luminance" maskUnits="userSpaceOnUse" x="12" y="32" width="132" height="36">
<path d="M143.76 32.5H12.7246V67.5H143.76V32.5Z" fill="white"/>
</mask>
<g mask="url(#mask1_5001_6314)">
<path d="M67.8806 45.5869C66.1593 45.5869 64.8721 46.2249 64.2352 47.2801H64.0974V45.911H60.9512V60.4118H64.0974V55.815H64.2352C64.8686 56.8703 66.1593 57.5082 67.8806 57.5082C71.1095 57.5082 73.6708 54.8666 73.6708 51.5458C73.6708 48.2284 71.1095 45.5869 67.8806 45.5869ZM67.2438 54.6391C65.4882 54.6391 64.0974 53.2701 64.0974 51.5458C64.0974 49.8043 65.4882 48.4526 67.2438 48.4526C69.051 48.4526 70.4244 49.8043 70.4244 51.5458C70.4244 53.2872 69.0338 54.6391 67.2438 54.6391Z" fill="#BEBEBE"/>
<path d="M138.255 46.4385C136.454 46.4385 135.046 47.1213 134.189 48.3076H134.048C134.282 46.1626 135.494 45.1212 138.104 44.7488L142.671 44.0866V41.1865L137.8 41.8796C133.301 42.5072 131.143 44.8936 131.143 49.1938C131.143 52.3043 131.343 53.2871 131.897 54.463C132.768 56.3492 134.926 57.5079 137.535 57.5079C141.05 57.5079 143.763 55.0113 143.763 51.7422C143.759 48.5972 141.518 46.4385 138.255 46.4385ZM137.501 54.6251C135.71 54.6251 134.389 53.4009 134.389 51.7422C134.389 50.0663 135.693 48.842 137.501 48.842C139.274 48.842 140.582 50.0663 140.582 51.7422C140.582 53.4009 139.256 54.6251 137.501 54.6251Z" fill="#BEBEBE"/>
<path d="M57.6561 42.5063L54.1141 49.6584L49.2878 42.5063H45.5254L52.5306 52.8585L52.3379 53.2517C52.0349 53.8793 51.6355 54.2173 50.713 54.2173H48.2345V57.1967H51.064C53.2224 57.1967 54.0934 56.6485 54.9952 54.8449L61.188 42.5029H57.6561V42.5063Z" fill="#BEBEBE"/>
<path d="M91.8408 45.9238L91.3036 52.9311C91.2214 54.0276 90.8527 54.4277 89.9818 54.4277H89.2109V57.2795H91.0871C93.1969 57.2795 94.1337 56.3139 94.2851 54.3001L94.6978 48.855H98.5673V57.183H101.747V45.9238H91.8408Z" fill="#BEBEBE"/>
<path d="M109.958 48.4865C111.245 48.4865 112.268 49.2107 112.753 50.1797L115.566 49.1176C114.78 46.9762 112.553 45.5898 109.892 45.5898C106.327 45.5898 103.635 48.1658 103.635 51.5522C103.635 54.9352 106.33 57.5147 109.892 57.5147C112.553 57.5147 114.78 56.1282 115.566 53.9868L112.753 52.9247C112.268 53.8903 111.245 54.6179 109.958 54.6179C108.168 54.6179 106.877 53.3454 106.877 51.5556C106.877 49.7591 108.168 48.4865 109.958 48.4865Z" fill="#BEBEBE"/>
<path d="M125.495 45.9082L120.611 53.0672V45.9082H117.465V57.1847H120.945L125.798 50.0774V57.1847H128.945V45.9082H125.495Z" fill="#BEBEBE"/>
<path d="M84.4753 47.2772H84.3369C83.7036 46.222 82.4135 45.584 80.692 45.584C77.463 45.584 74.9023 48.2255 74.9023 51.5464C74.9023 54.8638 77.463 57.5086 80.692 57.5086C82.4135 57.5086 83.7004 56.8708 84.3369 55.8155H84.4753V57.1845H87.6212V45.9082H84.4753V47.2772ZM81.3318 54.6396C79.5419 54.6396 78.1516 53.2878 78.1516 51.5464C78.1516 49.8049 79.5248 48.4531 81.3318 48.4531C83.0875 48.4531 84.4785 49.8049 84.4785 51.5464C84.4753 53.2706 83.0875 54.6396 81.3318 54.6396Z" fill="#BEBEBE"/>
<path d="M36.6556 50.1782C36.6556 46.0952 34.4352 42.5054 31.0996 40.4605L31.1444 43.2331C33.1272 44.94 34.3836 47.4229 34.3836 50.1782C34.3836 51.4369 34.1151 52.6369 33.6436 53.7335C32.2081 52.368 31.1858 50.761 30.5489 48.8643C29.7813 46.5677 29.6022 44.0538 29.5747 40.9813L29.5782 39.6605C28.8897 39.3638 28.1703 39.1293 27.4336 38.9639L27.437 40.9778C27.5093 51.5852 29.3441 55.9579 32.0739 59.2441C34.8656 57.1338 36.6556 53.8577 36.6556 50.1782C36.6556 50.1816 36.6556 50.1816 36.6556 50.1782Z" fill="#BEBEBE"/>
<path d="M21.9465 40.9807L21.95 38.9668C21.2133 39.1323 20.4939 39.3668 19.8054 39.6634L19.8089 40.9842C19.7779 44.0533 19.6024 46.5706 18.8347 48.8672C18.2014 50.7639 17.1756 52.3675 15.7401 53.7365C15.2685 52.6398 15 51.4398 15 50.1811C15 47.4224 16.2529 44.9429 18.2392 43.236L18.284 40.4634C14.9449 42.5049 12.7246 46.0947 12.7246 50.1777V50.1811C12.7246 53.8606 14.5181 57.1367 17.3064 59.247C20.0429 55.9642 21.8743 51.5881 21.9465 40.9807Z" fill="#BEBEBE"/>
<path d="M25.759 36.9198C25.37 36.8888 25.0189 36.875 24.6884 36.875C24.3579 36.875 24.0069 36.8888 23.6144 36.9198V39.3027C23.6144 49.7446 23.2116 54.2827 21.6523 61.3315C23.6282 61.8314 25.728 61.8314 27.7073 61.3349C26.1583 54.3379 25.759 49.7998 25.759 39.3027V36.9198Z" fill="#BEBEBE"/>
</g>
</g>
</svg>
