<svg width="157" height="100" viewBox="0 0 157 100" fill="none" xmlns="http://www.w3.org/2000/svg">
<mask id="mask0_5001_6384" style="mask-type:luminance" maskUnits="userSpaceOnUse" x="17" y="37" width="122" height="26">
<path d="M138.605 37.5H17.8906V62.5H138.605V37.5Z" fill="white"/>
</mask>
<g mask="url(#mask0_5001_6384)">
<path fill-rule="evenodd" clip-rule="evenodd" d="M17.8906 50C17.8906 56.9006 23.5972 62.5 30.6298 62.5C37.6624 62.5 43.369 56.9006 43.369 50C43.369 43.0994 37.6624 37.5 30.6298 37.5C23.5972 37.5 17.8906 43.0994 17.8906 50ZM18.3406 50C18.3406 43.3318 23.8577 37.9182 30.6535 37.9182C37.4493 37.9182 42.9664 43.3318 42.9664 50C42.9664 56.645 37.4493 62.0586 30.6535 62.0586C23.8577 62.0818 18.3406 56.6682 18.3406 50Z" fill="#BEBEBE"/>
<path fill-rule="evenodd" clip-rule="evenodd" d="M21.8674 46.5827C25.1351 44.4916 28.7343 43.2602 34.8434 44.3057C35.1749 44.1199 35.3643 43.9339 35.4591 43.539C33.9436 43.0046 32.2861 42.8187 30.155 42.8419C28.2371 42.8884 24.7799 43.5854 22.933 44.6542L23.5013 43.9572C24.8036 43.2137 28.166 42.2379 30.6759 42.1682C32.4518 42.1449 33.3753 42.2379 35.4827 42.7955C35.2933 42.4469 34.8671 42.2611 34.2278 41.9823C32.1914 41.0762 28.3554 41.0064 25.2298 42.354C25.6323 42.0984 26.0112 41.8661 26.5321 41.6338C27.5741 41.1691 29.2552 40.7277 31.3626 40.7509C33.0438 40.7741 35.0565 41.3549 36.2878 42.5399C36.5009 42.7722 36.6193 43.0278 36.6667 43.2369C37.6375 43.7249 38.2058 44.1663 38.5136 44.7007C38.632 44.9795 38.7031 45.2815 38.632 45.6068C39.0346 45.8392 39.224 46.0483 39.4371 46.3039C39.5791 46.5129 39.6976 46.7685 39.7212 47.0009C39.7686 47.3029 39.7923 47.6282 39.4844 48.0232C39.8159 48.1858 40.0764 48.6273 40.1238 48.8364C40.2658 49.5567 39.8159 50.2537 39.1766 50.8113C38.4663 51.4386 36.8798 52.1589 35.6011 52.4842C33.0438 53.1114 30.7943 53.3903 28.9948 53.7156C29.7998 53.9014 30.8891 54.157 32.6886 54.157C36.5009 54.157 39.8633 52.3912 39.8633 52.3912C39.8633 52.3912 39.7923 52.6236 39.7212 52.8327C37.306 54.2732 33.4463 54.8773 31.8125 54.8076C30.1313 54.7379 28.7343 54.4823 27.3609 54.0641C26.9347 54.1802 26.5321 54.2964 26.1296 54.4823C28.2133 55.4117 29.7998 55.6208 31.5994 55.7602C33.4227 55.8996 36.4298 55.4582 38.9872 54.552C38.8688 54.6682 38.8214 54.854 38.7031 54.9469C37.4007 55.6208 34.6303 56.2946 33.2569 56.341C31.8836 56.3875 30.2023 56.341 28.7343 56.0854C27.4793 55.8531 26.4374 55.4582 25.3719 54.9934C25.1825 55.1329 25.0878 55.3187 25.0404 55.5278C29.1368 57.6654 33.0675 57.7119 37.5428 56.341L37.1403 56.736C32.2151 58.6877 28.3791 57.9209 25.3956 56.5269C25.3008 56.4804 25.1825 56.4339 25.0878 56.3875C25.3719 56.8522 27.6451 58.4786 30.1787 58.6877C31.9309 58.8271 34.062 58.525 35.3406 58.0372L34.5829 58.4089C33.9673 58.7109 32.3335 59.3847 30.0603 59.2221C27.0294 59.0129 25.3246 57.7119 24.5431 57.0148C24.188 56.6895 24.0222 56.3178 23.9038 55.8531C23.2171 55.5046 22.7909 55.1329 22.4357 54.5984C22.2226 54.2732 22.27 53.9247 22.3173 53.6227L22.3883 53.3438C22.0568 53.1114 21.7253 52.8559 21.5833 52.6003C21.2755 52.0659 21.4649 51.6245 21.678 51.2527C21.4886 51.0437 21.3228 50.8577 21.2518 50.6487C21.1808 50.3931 21.1571 50.1607 21.1808 49.9052C21.2281 49.4637 21.4886 49.0455 21.7964 48.6969C22.4594 47.9535 23.5013 47.3727 25.3008 46.7918C27.0531 46.2342 27.7398 46.1412 29.0658 45.8392C30.6049 45.4907 32.4518 45.3745 33.991 44.8401C29.7051 44.0966 25.2298 44.7704 21.607 47.2332L21.8674 46.5827ZM36.4772 43.9804C36.4298 44.1895 36.1931 44.4219 36.051 44.5845C36.5246 44.7007 36.9982 44.8633 37.4481 45.0492C37.3771 44.631 36.9035 44.236 36.4772 43.9804ZM23.2645 52.3912C22.9803 52.2286 22.7909 52.1357 22.5778 51.973C22.4594 52.2286 22.6962 52.5306 22.933 52.67C23.0277 52.5771 23.1461 52.4842 23.2645 52.3912ZM37.7322 46.8847C38.0401 47.0241 38.3242 47.1403 38.5846 47.3262C38.7741 46.9544 38.6557 46.7221 38.2531 46.3968C38.1111 46.5827 37.9216 46.7453 37.7322 46.8847ZM36.8088 47.4423C36.1931 47.7212 35.2696 48.0232 33.991 48.3484C32.9491 48.604 30.3681 48.9758 27.5977 49.5567C26.7216 49.7425 24.3537 50.3002 23.1935 51.2527C23.525 51.5083 23.7144 51.578 24.0933 51.7639C24.5668 51.4619 25.2298 51.183 26.2006 50.9274C27.9056 50.486 29.1605 50.3002 30.6996 50.0446C32.2151 49.8122 35.0565 49.2314 36.643 48.6737C37.1639 48.4879 37.6375 48.2555 37.9927 47.9767C37.8743 47.8838 36.8561 47.3959 36.8088 47.4423ZM24.8746 53.9247C25.1114 53.7853 25.3956 53.6459 25.7034 53.5297C25.2535 53.3438 24.8036 53.1579 24.3537 52.9488C24.1406 53.065 23.9512 53.2044 23.8091 53.3438C24.1643 53.5297 24.4958 53.7388 24.8746 53.9247ZM23.4066 54.0641C23.4066 54.3429 23.5723 54.5985 23.9512 54.9005C23.9986 54.7379 24.0696 54.6449 24.188 54.5055C23.9038 54.3661 23.6671 54.2035 23.4066 54.0641ZM25.5613 48.9061C28.6633 48.0232 31.9309 47.7444 35.2459 46.8847C33.9436 46.5362 33.2569 46.3968 31.8836 46.5594C29.8946 46.7918 27.7161 47.21 25.8455 47.7444C25.1114 47.9535 21.2518 49.0222 22.3647 50.5324C22.3647 50.5557 23.0277 49.6496 25.5613 48.9061ZM37.2113 45.7927C36.714 45.5604 36.0747 45.3512 35.388 45.1654C35.0802 45.3977 34.7487 45.6068 34.2278 45.7927C35.0565 45.9321 35.6958 46.1644 36.4062 46.3736C36.5483 46.4432 37.1166 45.9089 37.2113 45.7927ZM38.7504 48.7202C38.6557 48.7899 38.561 48.8829 38.4426 48.9526C37.7322 49.4869 36.6193 49.9052 35.0802 50.3234C31.8836 51.1598 29.5631 51.2992 26.911 51.9265C26.3901 52.0427 25.8691 52.2286 25.3719 52.4144C25.8691 52.67 26.3901 52.8792 26.9347 53.0882C28.0003 52.7862 28.5212 52.6468 30.084 52.3912C30.6759 52.2983 32.4992 51.973 33.8252 51.6942C36.1931 51.2295 39.6738 50.1375 38.7504 48.7202Z" fill="#BEBEBE"/>
<path fill-rule="evenodd" clip-rule="evenodd" d="M55.5625 55.4384H58.1909L58.4986 53.5564H60.2982L60.6061 55.4384H63.2344L61.0086 44.4951H57.7409L55.5625 55.4384ZM59.4221 47.7943L59.9194 51.14H58.9486L59.4221 47.7943Z" fill="#BEBEBE"/>
<path fill-rule="evenodd" clip-rule="evenodd" d="M65.7496 48.7454C66.1758 48.7454 66.9335 48.4898 66.9335 47.6766C66.9335 46.7241 66.0337 46.6543 65.7969 46.6543C65.4891 46.6543 64.9445 46.7008 64.3762 46.9563L64.3525 44.5865C65.2286 44.3773 65.868 44.3076 66.602 44.3076C68.7094 44.3076 69.6802 45.7714 69.6802 47.1887C69.6802 48.5828 68.8515 49.4192 68.0701 49.7445V49.8606C68.8278 50.093 69.846 50.8133 69.846 52.4861C69.846 54.5539 68.3779 55.6924 66.5073 55.6924C65.4891 55.6924 64.8498 55.553 64.0684 55.1348L64.1157 52.8578C64.8498 53.1599 65.3471 53.1831 65.8443 53.1831C66.6731 53.1831 67.0046 52.5791 67.0046 52.1376C67.0046 51.5335 66.602 51.1153 65.7259 51.1153H64.6604V48.7454H65.7496Z" fill="#BEBEBE"/>
<path fill-rule="evenodd" clip-rule="evenodd" d="M78.1289 55.4384H75.5239V47.1205H73.6532V55.4384H71.0488V44.4951H78.1289V55.4384Z" fill="#BEBEBE"/>
<path fill-rule="evenodd" clip-rule="evenodd" d="M79.5977 55.4384H82.1784V51.8371H83.0548C85.6119 51.8371 86.4169 49.5834 86.4169 48.1428C86.4169 46.7255 85.5169 44.4951 83.0548 44.4951H79.5977V55.4384ZM82.1784 46.9115H82.7941C83.3862 46.9115 83.7412 47.26 83.7412 48.1661C83.7412 49.351 83.1255 49.4208 82.7941 49.4208H82.1784V46.9115Z" fill="#BEBEBE"/>
<path fill-rule="evenodd" clip-rule="evenodd" d="M91.1999 55.5754C94.2785 55.5754 95.2964 52.7641 95.2964 49.9527C95.2964 47.1414 94.2549 44.3301 91.1999 44.3301C88.1221 44.3301 87.1035 47.1414 87.1035 49.9527C87.1035 52.7641 88.1457 55.5754 91.1999 55.5754ZM91.1999 52.9267C90.3007 52.9267 89.8271 51.8812 89.8271 49.9527C89.8271 48.0243 90.3007 46.9788 91.1999 46.9788C92.1235 46.9788 92.5735 48.0243 92.5735 49.9527C92.5971 51.8812 92.1235 52.9267 91.1999 52.9267Z" fill="#BEBEBE"/>
<path fill-rule="evenodd" clip-rule="evenodd" d="M106.568 55.4384H109.671C110.333 55.4384 113.128 55.1596 113.151 51.8603C113.151 49.0723 110.973 48.5843 109.576 48.5843H109.126V47.1438H112.559V44.4951H106.593V55.4384H106.568ZM109.126 53.2544V50.7683H109.505C109.813 50.7683 110.618 50.7915 110.618 51.9068C110.618 53.0685 109.789 53.2544 109.505 53.2544H109.126Z" fill="#BEBEBE"/>
<path fill-rule="evenodd" clip-rule="evenodd" d="M129.322 55.4384H126.812V51.0704H124.989V55.4384H122.455V44.4951H124.989V48.4449H126.812V44.4951H129.322V55.4384Z" fill="#BEBEBE"/>
<path fill-rule="evenodd" clip-rule="evenodd" d="M138.325 44.4951L136.336 49.6995L138.609 55.4384H135.626L134.181 51.0471H133.566V55.4384H131.031V44.4951H133.566V48.4449H134.11L135.578 44.4951H138.325Z" fill="#BEBEBE"/>
<path fill-rule="evenodd" clip-rule="evenodd" d="M50.5703 44.4951H55.8744V47.2368H53.1987V55.4384H50.5703V44.4951Z" fill="#BEBEBE"/>
<path fill-rule="evenodd" clip-rule="evenodd" d="M102.257 55.4384V48.7702L100.694 50.6754L99.1315 48.7702V55.4384H96.5508V44.4951H98.7529L100.694 47.0741L102.636 44.4951H104.839V55.4384H102.257Z" fill="#BEBEBE"/>
<path fill-rule="evenodd" clip-rule="evenodd" d="M113.648 55.4609H116.277L116.585 53.5789H118.385L118.716 55.4609H121.344L119.118 44.5176H115.851L113.648 55.4609ZM117.508 47.8168L118.006 51.1626H117.035L117.508 47.8168Z" fill="#BEBEBE"/>
</g>
</svg>
