<svg width="157" height="100" viewBox="0 0 157 100" fill="none" xmlns="http://www.w3.org/2000/svg">
<g clip-path="url(#clip0_3925_7287)">
<g clip-path="url(#clip1_3925_7287)">
<path d="M47.8574 69.7912H109.267L78.7251 40.5625L47.8574 69.7912Z" fill="#BEBEBE"/>
<path d="M46.6827 68.3546L51.467 63.8878L49.8734 62.3236L46.8684 65.1304L41.5747 59.9361L39.7949 61.5978L46.6827 68.3546Z" fill="#BEBEBE"/>
<path d="M52.517 62.8707L57.4192 58.2924L56.073 56.9727L52.9602 59.8786L51.4655 58.412L53.9598 56.0831L52.5511 54.7022L50.0568 57.0299L48.7761 55.7738L51.7864 52.9623L50.4411 51.643L45.5543 56.206L52.517 62.8707Z" fill="#BEBEBE"/>
<path d="M68.5638 41.1664C66.5867 39.2267 63.157 39.4588 61.5054 41.0013C59.8533 42.5438 59.0101 45.6195 61.3431 47.9082C63.9057 50.4218 66.9547 49.5088 68.6068 47.9672C71.0426 45.6929 70.1756 42.7475 68.5638 41.1664ZM67.1107 46.639C66.0171 47.66 64.6802 47.3831 63.1526 45.8843C61.8689 44.6251 61.946 43.3601 62.8796 42.4883C63.5215 41.8888 64.8252 41.3526 66.3762 42.8743C68.1458 44.6103 68.2043 45.6179 67.1107 46.639Z" fill="#BEBEBE"/>
<path d="M74.0757 42.7779L75.8843 41.0886L73.1635 38.4198L71.5348 31.935L69.4617 33.8711L70.5401 37.55L66.8963 36.2659L64.9415 38.091L71.1537 40L74.0757 42.7779Z" fill="#BEBEBE"/>
<path d="M64.4338 51.7912C64.4338 51.7912 60.032 50.3539 59.8227 50.3887C59.7549 50.3993 60.7682 47.8187 58.4916 46.675C58.4916 46.675 56.8022 45.7998 55.1115 47.2697L51.508 50.6683L58.4548 57.3635L60.2926 55.6475L56.5336 51.9609L62.6101 53.4941L64.4338 51.7912ZM57.6161 50.8719C56.5947 51.8239 56.4569 51.899 56.4569 51.899C56.4569 51.899 54.8558 50.3285 54.799 50.2729C54.7423 50.2173 55.944 49.2314 56.1333 49.0545C56.2136 48.9794 56.9618 48.5123 57.5811 49.1194C57.5811 49.1194 58.6369 49.9182 57.6161 50.8719Z" fill="#BEBEBE"/>
<path d="M73.516 33.2118L71.9087 31.6609L78.9258 25L81.2225 27.2158L78.6944 31.9773L83.8484 29.7497L86.0582 31.8823L79.041 38.5432L77.3472 36.909L81.0513 33.3934L75.9841 35.5935L74.9367 34.5825L77.2919 29.7378L73.516 33.2118Z" fill="#BEBEBE"/>
<path d="M85.7 44.9684L80.8345 40.2742L87.8521 33.6133L92.7313 38.3215L91.3137 39.6672L88.2568 36.7179L87.1136 37.8027L89.5246 40.1291L88.0484 41.53L85.6521 39.2174L84.1183 40.6729L87.1464 43.5947L85.7 44.9684Z" fill="#BEBEBE"/>
<path d="M101.743 47.0174L103.551 48.7627L98.2412 53.8025L101.212 56.6678L99.5041 58.2897L94.7255 53.6786L101.743 47.0174Z" fill="#BEBEBE"/>
<path d="M100.767 59.5086L107.785 52.8478L109.55 54.5507L102.532 61.2111L100.767 59.5086Z" fill="#BEBEBE"/>
<path d="M105.733 64.301L104.083 62.708L111.101 56.0476L113.497 58.3588L111.449 65.2746L116.095 60.8652L117.702 62.4162L110.685 69.0766L108.589 67.0555L110.394 59.7952L105.733 64.301Z" fill="#BEBEBE"/>
<path d="M98.5717 43.9574L94.3096 39.8445L87.2773 46.4918L89.0855 48.2362L92.9195 44.5971L91.5395 50.6043L93.3907 52.3907C93.3907 52.3907 94.8499 48.0937 94.8947 47.9147C94.8947 47.9147 96.4759 48.7483 98.2109 47.3207C98.2109 47.3207 99.8751 45.7689 98.5717 43.9574ZM95.9692 45.9054C95.9692 45.9054 95.0734 46.4811 94.2839 45.7197L93.0507 44.4733C93.0507 44.4733 94.5406 43.0589 94.7286 42.8803C94.7286 42.8803 95.8766 43.9884 96.0202 44.1267C96.1634 44.265 97.0686 44.9166 95.9692 45.9054Z" fill="#BEBEBE"/>
</g>
</g>
<defs>
<clipPath id="clip0_3925_7287">
<rect width="78" height="50" fill="white" transform="translate(39.748 25)"/>
</clipPath>
<clipPath id="clip1_3925_7287">
<rect width="77.907" height="50" fill="white" transform="translate(39.7949 25)"/>
</clipPath>
</defs>
</svg>
