<svg width="157" height="100" viewBox="0 0 157 100" fill="none" xmlns="http://www.w3.org/2000/svg">
<g clip-path="url(#clip0_3925_7207)">
<g clip-path="url(#clip1_3925_7207)">
<path d="M28.1602 54.6547C29.5812 53.9553 30.7163 52.7986 31.3768 51.3767V59.403C29.4464 60.4972 27.2562 61.0696 25.0284 61.062C23.0864 61.0488 21.1733 60.5981 19.4358 59.7445C17.6984 58.8909 16.1827 57.657 15.0051 56.1375C13.8274 54.618 13.0192 52.8533 12.6422 50.9788C12.2653 49.1042 12.3297 47.1696 12.8305 45.3233C13.3314 43.4771 14.2554 41.7682 15.5315 40.3278C16.8077 38.8875 18.4023 37.7539 20.1928 37.014C21.9833 36.2741 23.9223 35.9476 25.861 36.0596C27.7997 36.1715 29.6865 36.7189 31.3768 37.6597V45.6814C30.7163 44.2595 29.5812 43.1028 28.1602 42.4034C26.7392 41.704 25.1178 41.504 23.5654 41.8366C22.0129 42.1693 20.6228 43.0145 19.626 44.2319C18.6291 45.4493 18.0856 46.9657 18.0856 48.529C18.0856 50.0924 18.6291 51.6088 19.626 52.8262C20.6228 54.0436 22.0129 54.8889 23.5654 55.2215C25.1178 55.5541 26.7392 55.3541 28.1602 54.6547Z" fill="#BEBEBE"/>
<path d="M64.5264 51.0846C63.6212 50.6298 62.618 50.3961 61.6017 50.4034C58.9032 50.4034 56.1434 52.2107 56.1434 55.7558C56.1104 59.1711 58.9785 60.9645 61.5782 60.9645C62.622 60.9751 63.6534 60.7416 64.5876 60.2833V59.0553C63.7734 59.5654 62.8205 59.8192 61.856 59.7828C59.7038 59.7828 57.4055 58.4667 57.4055 55.7373C57.4197 52.8363 59.6614 51.5665 61.8089 51.5665C62.769 51.5517 63.7128 51.8108 64.5264 52.3126V51.0846Z" fill="#BEBEBE"/>
<path d="M67.1779 60.7932V54.8661H64.55V53.7864H70.9738V54.8661H68.3647V60.7932H67.1779Z" fill="#BEBEBE"/>
<path fill-rule="evenodd" clip-rule="evenodd" d="M79.8655 57.2898C79.8655 55.186 78.3349 53.6104 76.3051 53.6104C75.7534 53.6061 75.208 53.7249 74.7097 53.9576C74.2113 54.1903 73.773 54.5311 73.4275 54.9542V53.805H72.3585V64H73.5358V59.7413C73.8747 60.1365 74.2995 60.4516 74.7788 60.6634C75.2582 60.8752 75.7798 60.9781 76.3051 60.9647C76.7873 60.964 77.2643 60.8671 77.7074 60.6799C78.1505 60.4928 78.5505 60.2193 78.8833 59.8758C79.216 59.5324 79.4746 59.1262 79.6434 58.6818C79.8122 58.2373 79.8877 57.7638 79.8655 57.2898ZM74.591 55.1658C75.0586 54.8596 75.6068 54.6943 76.1685 54.6901H76.1591C76.5013 54.6856 76.8408 54.7507 77.1562 54.8815C77.4716 55.0122 77.7561 55.2058 77.9918 55.4499C78.2276 55.6941 78.4094 55.9836 78.526 56.3002C78.6426 56.6168 78.6914 56.9538 78.6692 57.2898C78.6914 57.6257 78.6426 57.9624 78.526 58.2788C78.4094 58.5952 78.2274 58.8844 77.9916 59.1282C77.7558 59.372 77.4712 59.5651 77.1558 59.6953C76.8404 59.8256 76.5011 59.8901 76.1591 59.8849C75.5994 59.8799 75.0533 59.7147 74.5875 59.4094C74.1216 59.1041 73.7562 58.6719 73.5358 58.1657V56.414C73.7567 55.9058 74.1233 55.472 74.591 55.1658Z" fill="#BEBEBE"/>
<path fill-rule="evenodd" clip-rule="evenodd" d="M119.164 54.9542V53.7865H120.233V60.7932H119.046V59.7413C118.709 60.1361 118.285 60.4514 117.808 60.6639C117.33 60.8764 116.81 60.9808 116.286 60.9693C114.252 60.9693 112.726 59.3891 112.726 57.2898C112.726 55.1906 114.252 53.6104 116.286 53.6104C116.838 53.6061 117.383 53.7249 117.882 53.9576C118.38 54.1903 118.818 54.5311 119.164 54.9542ZM113.913 57.2713L113.912 57.2806C113.891 56.9478 113.939 56.6143 114.054 56.3005C114.17 55.9839 114.351 55.6944 114.587 55.4501C114.822 55.2059 115.106 55.0123 115.422 54.8815C115.737 54.7507 116.076 54.6855 116.418 54.6901C116.979 54.6952 117.526 54.8609 117.993 55.1671C118.459 55.4732 118.825 55.9065 119.046 56.414V58.1472C118.825 58.6546 118.459 59.0879 117.993 59.3941C117.526 59.7002 116.979 59.866 116.418 59.871C116.076 59.8756 115.737 59.8105 115.422 59.6797C115.106 59.5489 114.822 59.3552 114.587 59.111C114.351 58.8668 114.17 58.5772 114.054 58.2606C113.939 57.9469 113.891 57.6133 113.912 57.2806L113.913 57.2898V57.2713Z" fill="#BEBEBE"/>
<path d="M81.9427 57.2806L81.9433 57.2713V57.2899L81.9427 57.2806Z" fill="#BEBEBE"/>
<path fill-rule="evenodd" clip-rule="evenodd" d="M87.1945 53.7865V54.9543C86.8483 54.5307 86.4091 54.1898 85.91 53.9571C85.4108 53.7243 84.8646 53.6058 84.3122 53.6104C82.2777 53.6104 80.7565 55.1906 80.7565 57.2899C80.7565 59.3891 82.2824 60.9693 84.3169 60.9693C84.8403 60.9808 85.3596 60.8764 85.8365 60.6638C86.3134 60.4513 86.7356 60.136 87.072 59.7413V60.7933H88.2588V53.7865H87.1945ZM82.0847 56.3006C81.9697 56.6143 81.9214 56.9478 81.9427 57.2806C81.9214 57.6133 81.9697 57.9469 82.0847 58.2606C82.2008 58.5773 82.3822 58.8668 82.6175 59.111C82.8529 59.3553 83.1372 59.5489 83.4523 59.6797C83.7675 59.8105 84.1068 59.8757 84.4488 59.8711C85.009 59.8657 85.5555 59.6997 86.0214 59.3936C86.4873 59.0874 86.8524 58.6543 87.072 58.1472V56.414C86.8524 55.9069 86.4873 55.4738 86.0214 55.1676C85.5555 54.8614 85.009 54.6955 84.4488 54.6901C84.1068 54.6855 83.7675 54.7507 83.4523 54.8815C83.1372 55.0123 82.8529 55.2059 82.6175 55.4502C82.3822 55.6944 82.2008 55.9839 82.0847 56.3006Z" fill="#BEBEBE"/>
<path d="M96.4201 53.7864L93.811 57.1878L96.5708 60.7932H95.205L93.1281 58.022L91.0371 60.7932H89.6713L92.4452 57.1878L89.822 53.7864H91.1878L93.1281 56.3722L95.059 53.7864H96.4201Z" fill="#BEBEBE"/>
<path fill-rule="evenodd" clip-rule="evenodd" d="M104.179 57.2897C104.179 54.8985 102.323 53.6102 100.383 53.6102C98.4706 53.6102 96.6151 54.8985 96.6151 57.2897C96.6151 59.6809 98.4424 60.9646 100.383 60.9646C102.323 60.9646 104.179 59.6809 104.179 57.2897ZM99.3622 54.8796C99.6873 54.7572 100.035 54.7037 100.383 54.7224C100.73 54.7037 101.078 54.7572 101.403 54.8796C101.728 55.002 102.024 55.1905 102.27 55.4327C102.516 55.675 102.708 55.9655 102.832 56.2855C102.956 56.6055 103.011 56.9477 102.992 57.2897C102.992 57.9706 102.717 58.6236 102.228 59.1051C101.738 59.5866 101.075 59.857 100.383 59.857C99.6907 59.857 99.0271 59.5866 98.5378 59.1051C98.0485 58.6236 97.7736 57.9706 97.7736 57.2897C97.7546 56.9477 97.809 56.6055 97.9334 56.2855C98.0578 55.9655 98.2493 55.675 98.4955 55.4327C98.7417 55.1905 99.037 55.002 99.3622 54.8796Z" fill="#BEBEBE"/>
<path fill-rule="evenodd" clip-rule="evenodd" d="M105.529 60.7932V53.7864H109.428C110.676 53.7864 111.628 54.4444 111.628 55.6864C111.637 56.0053 111.553 56.3202 111.386 56.5937C111.219 56.8672 110.976 57.0879 110.686 57.2295C111.031 57.3426 111.33 57.5606 111.541 57.8522C111.752 58.1437 111.863 58.4937 111.858 58.8515C111.858 60.0054 111.1 60.7932 109.56 60.7932H105.529ZM106.715 56.7476H109.329C109.951 56.7476 110.445 56.5159 110.445 55.8208C110.454 55.6781 110.43 55.5353 110.375 55.4028C110.321 55.2702 110.237 55.1512 110.131 55.0542C110.024 54.9571 109.897 54.8846 109.758 54.8416C109.62 54.7987 109.473 54.7865 109.329 54.8059H106.734L106.715 56.7476ZM106.715 59.769H109.386C110.125 59.769 110.662 59.5512 110.662 58.7773C110.662 58.0034 110.022 57.7578 109.428 57.7578H106.715V59.769Z" fill="#BEBEBE"/>
<path d="M123.208 53.7864H122.022V60.7932H123.208V57.8273H127.329V60.7932H128.521V53.7864H127.329V56.7476H123.208V53.7864Z" fill="#BEBEBE"/>
<path d="M130.188 53.7864H131.374V58.9071L135.731 53.7864H136.739V60.7932H135.556V55.6678L131.195 60.7932H130.188V53.7864Z" fill="#BEBEBE"/>
<path fill-rule="evenodd" clip-rule="evenodd" d="M144.985 57.781C145.456 55.8161 144.434 53.6102 141.689 53.6102C141.209 53.6109 140.734 53.7075 140.294 53.894C139.853 54.0806 139.455 54.3534 139.125 54.6957C138.795 55.0381 138.539 55.4429 138.372 55.8856C138.206 56.3284 138.132 56.7997 138.156 57.2712C138.156 59.7644 139.993 60.9461 142.098 60.9461C142.968 60.9687 143.832 60.7943 144.623 60.4363V59.3009C143.897 59.6765 143.088 59.8707 142.268 59.8663C140.831 59.8663 139.48 59.2546 139.334 57.781H144.985ZM139.334 56.7753C139.409 55.4083 140.549 54.69 141.764 54.69C143.572 54.69 144.048 56.0339 143.944 56.7753H139.334Z" fill="#BEBEBE"/>
<path d="M37.7819 36H31.377V61.0613H37.7819V36Z" fill="#BEBEBE"/>
<path d="M48.7744 57.6505C48.7744 58.3681 48.5582 59.0697 48.153 59.6664C47.7478 60.2631 47.1719 60.7281 46.498 61.0028C45.8242 61.2774 45.0828 61.3493 44.3675 61.2093C43.6521 61.0693 42.9951 60.7237 42.4794 60.2162C41.9636 59.7088 41.6124 59.0622 41.4702 58.3584C41.3279 57.6545 41.4009 56.9249 41.68 56.2619C41.9591 55.5989 42.4317 55.0322 43.0382 54.6335C43.6446 54.2348 44.3575 54.022 45.0869 54.022C46.0645 54.0232 47.0017 54.4059 47.693 55.0861C48.3843 55.7663 48.7732 56.6885 48.7744 57.6505Z" fill="#BEBEBE"/>
<path fill-rule="evenodd" clip-rule="evenodd" d="M92.5633 43.1553C92.5633 40.6065 90.637 39.3043 88.4801 39.3043C86.3372 39.3043 84.3969 40.6065 84.3969 43.1553C84.3969 45.704 86.3231 47.0062 88.4801 47.0062C90.637 47.0062 92.5633 45.704 92.5633 43.1553ZM86.5963 43.1553C86.5963 42.0338 87.2603 40.968 88.4801 40.968C89.714 40.968 90.3922 42.0338 90.3922 43.1553C90.3922 44.2767 89.6904 45.3426 88.4801 45.3426C87.2697 45.3426 86.5963 44.2767 86.5963 43.1553Z" fill="#BEBEBE"/>
<path fill-rule="evenodd" clip-rule="evenodd" d="M72.1237 39.9206C71.4156 39.9294 70.721 40.1126 70.1033 40.4535C70.232 40.1228 70.4361 39.8255 70.6998 39.5845C70.9635 39.3435 71.2798 39.1652 71.6245 39.0633C72.1616 38.8772 72.8339 38.7501 73.4669 38.6305C74.4103 38.4522 75.2664 38.2904 75.4581 37.9743V36.1716C75.1256 36.4902 74.3627 36.6277 73.4656 36.7895C72.4055 36.9806 71.158 37.2054 70.2116 37.8028C68.9353 38.6045 67.984 40.4813 68.1112 43.1876C68.1112 45.6669 69.9385 47.0062 72.1237 47.0062C74.2147 47.0062 76.0844 45.8059 76.0844 43.4657C76.0844 41.1255 74.2006 39.9206 72.1237 39.9206ZM72.0436 45.3657C71.7875 45.3777 71.5316 45.3367 71.2925 45.2453C71.0535 45.1539 70.8366 45.0142 70.6559 44.8351C70.4752 44.656 70.3348 44.4415 70.2436 44.2056C70.1525 43.9698 70.1127 43.7177 70.1269 43.4657C70.114 43.2092 70.1542 42.9528 70.245 42.7121C70.3359 42.4714 70.4755 42.2513 70.6554 42.0653C70.8353 41.8793 71.0518 41.7312 71.2916 41.63C71.5315 41.5288 71.7897 41.4766 72.0507 41.4766C72.3117 41.4766 72.5699 41.5288 72.8098 41.63C73.0496 41.7312 73.2661 41.8793 73.446 42.0653C73.6259 42.2513 73.7655 42.4714 73.8564 42.7121C73.9473 42.9528 73.9874 43.2092 73.9745 43.4657C73.9881 43.7187 73.9475 43.9717 73.8552 44.2083C73.763 44.4448 73.6212 44.6597 73.4391 44.8388C73.2571 45.018 73.0387 45.1575 72.7983 45.2483C72.5579 45.339 72.3008 45.379 72.0436 45.3657Z" fill="#BEBEBE"/>
<path d="M116.724 41.292V46.7973H118.853V41.292H121.208V39.5171H114.365V41.292H116.724Z" fill="#BEBEBE"/>
<path fill-rule="evenodd" clip-rule="evenodd" d="M109.908 39.3043C108.024 39.3043 106.305 40.3053 105.909 42.2701H104.741V39.5175H102.599V46.7977H104.741V44.0404H105.909C106.305 46.0052 108.029 47.0062 109.908 47.0062C112.065 47.0062 113.991 45.704 113.991 43.1553C113.991 40.6065 112.065 39.3043 109.908 39.3043ZM109.908 45.3287C108.688 45.3287 108.024 44.2628 108.024 43.1414C108.024 42.0199 108.702 40.9541 109.908 40.9541C111.113 40.9541 111.815 42.0199 111.815 43.1414C111.815 44.2628 111.137 45.3287 109.908 45.3287Z" fill="#BEBEBE"/>
<path d="M95.0359 39.5171H100.852V46.7973H98.7234V41.292H96.8914L96.3169 44.4988C96.006 46.2227 94.871 47.1402 93.1474 46.839L93.039 46.8159V45.0086C93.1765 45.0345 93.318 45.0313 93.4542 44.9994C93.5903 44.9675 93.7181 44.9075 93.8289 44.8234C93.9398 44.7393 94.0312 44.633 94.0972 44.5115C94.1632 44.3901 94.2022 44.2562 94.2117 44.1188L95.0359 39.5171Z" fill="#BEBEBE"/>
<path fill-rule="evenodd" clip-rule="evenodd" d="M67.8845 46.7975L63.467 36.1807H60.9709L56.5816 46.7975H58.9364L59.8783 44.3599H64.4889L65.4309 46.7975H67.8845ZM60.5612 42.5851C61.3571 40.546 62.1436 38.4885 62.1813 38.2892C62.219 38.4885 63.0054 40.546 63.7919 42.5851H60.5612Z" fill="#BEBEBE"/>
<path d="M83.4267 39.8184C82.7525 39.4663 82 39.2848 81.2368 39.2901V39.2855C79.1881 39.2855 77.0641 40.4765 77.0641 43.2569C77.0641 45.852 79.0798 47.0013 81.1002 47.0013C81.931 47.014 82.7555 46.8561 83.5209 46.5379V44.8047C82.9187 45.1742 82.2193 45.3611 81.5099 45.3423C81.2131 45.353 80.9171 45.3041 80.6401 45.1986C80.3632 45.093 80.111 44.9329 79.899 44.7282C79.687 44.5235 79.5196 44.2784 79.4071 44.0079C79.2946 43.7374 79.2393 43.4472 79.2446 43.155C79.2347 42.8588 79.288 42.5638 79.4011 42.2891C79.5141 42.0143 79.6843 41.7659 79.9008 41.5599C80.1174 41.3538 80.3753 41.1947 80.6581 41.0927C80.9409 40.9907 81.2423 40.9481 81.5429 40.9677C82.2147 40.9628 82.872 41.1601 83.4267 41.533V39.8184Z" fill="#BEBEBE"/>
</g>
</g>
<defs>
<clipPath id="clip0_3925_7207">
<rect width="134" height="28" fill="white" transform="translate(11.748 36)"/>
</clipPath>
<clipPath id="clip1_3925_7207">
<rect width="132.695" height="28" fill="white" transform="translate(12.4004 36)"/>
</clipPath>
</defs>
</svg>
