<svg width="157" height="100" viewBox="0 0 157 100" fill="none" xmlns="http://www.w3.org/2000/svg">
<path fill-rule="evenodd" clip-rule="evenodd" d="M15.5156 50C15.5156 43.1018 21.102 37.5154 28.0002 37.5V42.0216C23.602 42.0216 20.0372 45.6018 20.0372 50C20.0372 54.4136 23.6175 57.9784 28.0156 57.9784C32.3983 57.9784 35.994 54.4444 35.994 49.9691H40.5156C40.5156 56.8981 34.9292 62.5 28.0156 62.5C21.102 62.5 15.5156 56.8981 15.5156 50Z" fill="#BEBEBE"/>
<path d="M22.5059 50.0001C22.5059 46.9445 24.9904 44.46 28.046 44.46C31.1015 44.46 33.5861 46.9445 33.5861 50.0001C33.5861 53.0711 31.1015 55.5402 28.046 55.5402C24.9904 55.5402 22.5059 53.0711 22.5059 50.0001Z" fill="#BEBEBE"/>
<path d="M31.8887 42.9788C31.8887 41.2196 33.3084 39.7998 35.0677 39.7998C36.8269 39.7998 38.2467 41.2196 38.2467 42.9788C38.2467 44.7381 36.8269 46.1578 35.0677 46.1578C33.3084 46.1578 31.8887 44.7381 31.8887 42.9788Z" fill="#BEBEBE"/>
<path d="M129.482 46.1272L129.096 48.0253C128.185 52.1457 127.861 53.4728 127.074 57.5778L126.904 57.7321L124.404 57.8093L124.281 57.6395L125.284 53.4111L125.577 52.0222C124.497 51.9914 123.432 51.9759 122.352 51.9759C121.519 51.9759 120.87 51.9914 120.222 52.0068C119.852 53.6735 119.543 55.1241 119.08 57.5778L118.911 57.7321L116.411 57.8093L116.287 57.6395L117.29 53.4111L117.691 51.5747C118.355 48.6735 118.478 48.0408 118.864 45.371L119.034 45.2012C120.176 45.0469 120.454 45.0006 121.627 44.7537L121.75 44.9235L121.488 46.1426L121.102 48.0408L120.701 49.8309C121.596 49.8463 122.506 49.8617 123.417 49.8617C124.374 49.8617 125.006 49.8463 126.071 49.8154C126.411 48.2414 126.549 47.3926 126.858 45.3556L127.028 45.1858C128.185 45.0315 128.448 44.9852 129.636 44.7383L129.759 44.908L129.482 46.1272Z" fill="#BEBEBE"/>
<path d="M99.3421 51.636C99.5118 50.9261 99.6353 50.2008 99.6353 49.5218C99.6353 47.0218 98.0303 46.6051 97.1198 46.6051C93.2464 46.6051 92.7525 52.6236 92.7525 53.5341C92.7525 55.5094 93.9408 56.3736 95.268 56.3736C97.9069 56.3736 98.8945 53.673 99.3421 51.636ZM101.904 52.4076C101.364 54.5372 99.8513 58.21 95.2217 58.21C91.9347 58.21 90.1445 56.5125 90.1445 53.1483C90.1445 52.7162 90.1754 52.2378 90.2526 51.7286C90.268 51.6051 90.2834 51.4816 90.2988 51.3582C91.1939 45.8026 93.6013 40.5249 98.8945 40.4786C99.6044 40.4631 101.024 40.4014 101.996 40.1699L101.641 42.3921C100.654 42.6391 99.1106 42.778 98.2001 42.778C97.0735 42.7934 96.3019 43.21 95.7618 43.7347C95.4995 43.9817 95.2834 44.2749 95.1291 44.5218C94.9748 44.7687 94.8513 45.0002 94.7742 45.1854C95.484 44.9693 96.2556 44.8304 97.1198 44.8304C100.345 44.8304 102.274 46.636 102.274 49.815C102.274 50.6637 102.12 51.5434 101.904 52.4076Z" fill="#BEBEBE"/>
<path d="M133.725 50.1391C134.311 49.6299 134.651 49.3058 135.469 48.5187C136.317 47.6854 138.416 45.5249 138.802 45.1083L139.08 44.9694H141.904L141.981 45.1854C141.734 45.4015 141.611 45.5095 140.623 46.3428C140.237 46.6669 139.99 46.9138 139.527 47.3305L136.333 50.278L140.144 57.5311L139.99 57.7317L137.259 57.8089L137.058 57.6545C136.425 56.1268 136.256 55.7873 135.361 53.9971L133.632 50.5095C133.092 52.9169 132.752 54.4447 132.151 57.6082L131.981 57.7626L129.481 57.8397L129.357 57.67L130.361 53.4416L130.746 51.6052C131.41 48.7039 131.533 48.0712 131.919 45.4015L132.089 45.2317C133.246 45.0774 133.509 45.0311 134.697 44.7842L134.82 44.9539L134.558 46.1731L134.172 48.0712L133.725 50.1391Z" fill="#BEBEBE"/>
<path d="M111.997 54.6144C111.734 54.8305 111.457 55.0774 111.179 55.2471C110.546 55.6484 109.697 55.8181 109.034 55.8181C106.781 55.8181 106.148 53.92 106.148 52.7471C106.148 52.6237 106.194 49.4447 108.787 47.6854C110.238 46.6978 111.843 46.6515 112.66 46.6515C113.031 46.6515 113.401 46.6669 113.772 46.6669L111.997 54.6144ZM116.719 45.0002L116.596 44.7996L113.185 44.7842C110.917 44.7842 107.738 44.9231 105.438 47.6237C104.404 48.8583 103.463 50.9725 103.463 52.9169C103.463 55.9879 105.515 57.7626 108.031 57.7626C110.13 57.7626 111.21 56.8521 111.626 56.5126L111.457 57.5002L111.58 57.67L113.895 57.6237L114.065 57.4539C114.559 54.5218 114.728 53.5805 115.593 49.7996L116.719 45.0002Z" fill="#BEBEBE"/>
<path d="M51.7034 58.1323C49.0336 58.1323 45.1756 57.2835 46.5799 51.1107C47.1046 48.7959 48.7095 43.873 55.299 43.873C61.7034 43.873 60.7466 49.12 60.3608 50.9718C59.1725 56.2033 55.9781 58.1323 51.7034 58.1323ZM52.583 55.4163C54.4657 55.4163 55.3453 53.4564 55.9163 50.9409C56.3176 49.1663 56.7497 46.5582 54.4811 46.5582C52.5521 46.5582 51.6879 48.4101 51.1324 50.9409C50.5923 53.2712 50.4688 55.4163 52.583 55.4163Z" fill="#BEBEBE"/>
<path d="M67.3674 57.8394C66.1329 57.8394 64.0958 57.8394 63.2471 57.8703L63.1082 57.7006C63.3397 56.8827 63.9261 54.6604 64.5279 51.9598C65.0217 49.7685 65.4538 47.8394 65.6236 46.9598C64.5896 46.9907 63.0001 46.9907 62.2131 47.0061L62.0742 46.8209C62.2748 46.1573 62.568 44.9999 62.7532 44.3055L62.9847 44.1666C63.6792 44.1975 66.2872 44.2129 68.4014 44.2129C70.9477 44.2129 73.4322 44.1666 73.9569 44.1357L74.1267 44.2746C73.9415 44.8919 73.602 46.1573 73.4322 46.7901L73.1853 46.9444C72.1668 46.929 71.3952 46.929 69.9137 46.929C69.7903 47.4845 69.389 49.1357 68.7254 52.0678C68.2316 54.2901 67.815 56.3117 67.5835 57.608L67.3674 57.8394Z" fill="#BEBEBE"/>
<path d="M81.6721 47.2839C80.8388 47.2839 79.9129 47.3148 79.4962 47.3148C79.3727 47.8857 78.8635 49.9999 78.4005 52.0524C77.8604 54.4752 77.3666 56.7438 77.1814 57.6851L76.9345 57.8394C75.669 57.8394 74.0487 57.8394 72.7524 57.8703L72.6289 57.7006C72.8913 56.6357 73.5703 53.7654 74.2184 50.895C74.8666 48.0092 75.4375 45.1851 75.6073 44.3827L75.8233 44.1975C77.2122 44.1975 78.6166 44.2438 82.0733 44.2438C84.774 44.2438 87.3974 44.1666 88.7863 44.1357L88.9098 44.2901C88.7246 44.9845 87.953 48.3024 87.2122 51.5894C86.6104 54.2438 86.0548 56.8827 85.9159 57.6388L85.7308 57.7932C84.6196 57.7932 82.598 57.7932 81.5332 57.824L81.4252 57.6388C81.6567 56.7438 82.1505 54.6604 82.7369 52.0833C83.1845 50.1234 83.6166 48.0401 83.8017 47.2685C83.3542 47.2993 82.4437 47.2839 81.6721 47.2839Z" fill="#BEBEBE"/>
</svg>
