<svg width="157" height="100" viewBox="0 0 157 100" fill="none" xmlns="http://www.w3.org/2000/svg">
<g clip-path="url(#clip0_3925_7239)">
<path d="M71.3426 42.1964C71.3426 41.6486 71.1901 41.4356 70.6224 41.4546C69.1821 41.4889 67.738 41.5003 66.2977 41.4546C66.042 41.4161 65.7812 41.4765 65.5687 41.6236C65.3562 41.7707 65.2081 41.9933 65.1546 42.2459C63.821 45.894 62.4417 49.5307 61.0738 53.1674C60.9824 53.4184 60.8642 53.6543 60.6927 54.0233C60.5441 53.6429 60.4603 53.4679 60.3879 53.2624C58.9896 49.5763 57.5835 45.8978 56.1966 42.2002C56.145 41.9563 56.0016 41.7414 55.796 41.5999C55.5905 41.4584 55.3384 41.4009 55.0916 41.4394C53.6246 41.4813 52.1538 41.4927 50.6869 41.4394C49.9553 41.4128 49.8029 41.6715 49.8067 42.3524C49.8333 47.4689 49.8067 52.5853 49.8067 57.7018C49.8067 57.9834 49.8334 58.2648 49.8487 58.6072C50.8698 58.6072 51.8033 58.5691 52.733 58.6072C53.3846 58.6452 53.537 58.4018 53.5332 57.7855C53.5065 54.2667 53.5332 50.7518 53.5332 47.233V46.457C53.759 46.6829 53.9276 46.9594 54.0248 47.2634C55.4002 50.8165 56.791 54.3618 58.1361 57.9149C58.1874 58.1437 58.3246 58.3442 58.5196 58.4751C58.7144 58.606 58.9522 58.6574 59.1839 58.6186C60.064 58.5767 60.9481 58.5844 61.8282 58.6186C62.0244 58.6509 62.2256 58.6053 62.3886 58.4916C62.5516 58.3778 62.6636 58.205 62.7008 58.0099C63.2609 56.4883 63.8439 54.9667 64.4421 53.4451C65.3769 51.0105 66.313 48.5784 67.2503 46.1489L67.4599 46.1717V58.6148C68.542 58.6148 69.5517 58.5844 70.5538 58.6148C71.1406 58.6376 71.3387 58.4626 71.3158 57.854C71.3133 52.6374 71.3222 47.4181 71.3426 42.1964Z" fill="#BEBEBE"/>
<path d="M42.438 41.8004C41.1595 41.2461 39.7764 40.9738 38.383 41.002C36.9896 41.0302 35.6187 41.3583 34.364 41.9639C32.5007 42.8427 31.4262 44.4214 30.988 46.5593C32.2301 46.7457 33.3771 46.9397 34.5315 47.0728C34.6687 47.0728 34.9126 46.9092 34.9812 46.7609C36.1243 44.7904 37.2369 44.2578 39.5535 44.6344C41.2225 44.9045 42.2208 46.4451 41.7826 48.1836C40.3918 48.1836 38.9705 48.0885 37.5912 48.2102C36.2647 48.2865 34.9546 48.5424 33.6971 48.971C31.2395 49.9107 30.0582 52.06 30.4165 54.4794C30.7746 56.8988 32.6264 58.622 35.1869 58.9111C37.6789 59.1887 40.0298 58.8807 42.1217 57.0585C42.1483 57.6709 42.1674 58.1084 42.1903 58.6258C43.3829 58.6258 44.4765 58.6258 45.6195 58.603C45.7643 58.603 46.0235 58.272 46.0235 58.097C46.0235 54.5516 46.1149 51.0062 45.9777 47.4684C45.8596 44.9844 44.8689 42.8047 42.438 41.8004ZM37.9913 55.4988C37.3318 55.5427 36.6695 55.4901 36.0252 55.3429C35.5944 55.2407 35.2127 54.9919 34.9456 54.6392C34.6786 54.2866 34.543 53.852 34.5621 53.4104C34.5447 52.9789 34.6798 52.555 34.9438 52.2129C35.2077 51.8708 35.5838 51.6322 36.0062 51.5388C36.7537 51.347 37.5207 51.2411 38.2924 51.2231C39.5078 51.1698 40.7233 51.2231 41.996 51.2231C41.9807 53.6805 40.388 55.3961 37.9913 55.4988Z" fill="#BEBEBE"/>
<path d="M129.301 47.4461C129.089 45.9437 128.401 44.5482 127.338 43.4634C126.276 42.3787 124.894 41.6615 123.394 41.4167C122.259 41.2539 121.11 41.2055 119.965 41.2721C118.432 41.3023 116.946 41.8134 115.719 42.733C114.492 43.6526 113.587 44.9341 113.129 46.3962C112.39 48.6703 112.349 51.1132 113.012 53.4109C113.328 54.6762 113.989 55.8294 114.922 56.7426C115.855 57.6557 117.023 58.2932 118.297 58.5844C120.372 59.1512 122.573 59.0715 124.602 58.3562C125.685 58.0018 126.668 57.3939 127.468 56.5833C128.268 55.7727 128.862 54.7828 129.202 53.6962C128.035 53.4831 126.946 53.274 125.852 53.1066C125.753 53.1109 125.654 53.1379 125.567 53.1853C125.479 53.2328 125.403 53.2994 125.345 53.3805C124.137 55.2597 122.35 55.739 120.269 55.4956C118.189 55.2521 116.536 53.213 116.89 51.2388H129.49C129.49 50.7328 129.51 50.3106 129.49 49.8921C129.472 49.0739 129.409 48.2573 129.301 47.4461ZM116.864 47.8798C117.046 45.8902 118.742 44.5436 121.055 44.517C123.436 44.4865 125.097 45.7495 125.368 47.8798H116.864Z" fill="#BEBEBE"/>
<path d="M91.7155 48.3968C91.6752 46.7425 91.0675 45.1521 89.9939 43.8913C88.9204 42.6305 87.4461 41.7757 85.8172 41.4696C84.2901 41.2298 82.7398 41.1723 81.1991 41.2984C79.5454 41.415 77.9816 42.0929 76.7673 43.2195C75.5528 44.3461 74.7611 45.8535 74.5235 47.4914C74.3177 49.1564 74.3177 50.8403 74.5235 52.5052C74.8816 55.4343 76.6343 57.4277 79.4006 58.3824C81.7688 59.2022 84.3444 59.2022 86.7126 58.3824C89.4256 57.4695 91.0906 55.5142 91.6241 52.6763C91.7369 51.8058 91.7979 50.9294 91.807 50.0515H91.7155C91.7155 49.5114 91.7422 48.9522 91.7155 48.3968ZM87.5661 51.1776C87.4823 53.8899 85.6228 55.575 82.8718 55.4419C80.1207 55.3088 78.5776 53.7453 78.5242 50.9683C78.5242 50.6488 78.5242 50.3292 78.5242 50.0097C78.5242 49.6293 78.5242 49.2489 78.5242 48.8913C78.5966 46.3007 80.3418 44.6688 83.0356 44.6688C85.7295 44.6688 87.4937 46.2741 87.5623 48.8533C87.5889 49.6331 87.5928 50.4054 87.5699 51.1776H87.5661Z" fill="#BEBEBE"/>
<path d="M109.625 42.3138C109.625 41.6557 109.446 41.4464 108.775 41.4502C104.876 41.4807 100.98 41.4807 97.0856 41.4502C96.4644 41.4502 96.2663 41.6138 96.2626 42.2567C96.2473 45.4242 96.199 48.5943 96.1177 51.7669C96.0901 52.4092 95.9943 53.0468 95.832 53.669C95.7564 54.0117 95.5669 54.3188 95.2944 54.5405C95.0218 54.7622 94.6822 54.8854 94.3307 54.8901C94.0117 54.9229 93.6909 54.9331 93.3705 54.9205C92.9018 54.8901 92.6808 55.046 92.696 55.5482C92.7228 56.3736 92.7189 57.1991 92.696 58.0245C92.696 58.4621 92.8332 58.656 93.2943 58.637C94.1478 58.5989 95.0051 58.637 95.8548 58.5685C97.8705 58.3973 99.1164 57.3855 99.5775 55.4112C99.8149 54.3196 99.9426 53.2072 99.9585 52.0902C100.016 49.8344 99.9585 47.571 99.9585 45.2733H105.434V58.6143C106.65 58.6143 107.739 58.5837 108.829 58.6143C109.454 58.6408 109.648 58.4468 109.644 57.8077C109.631 52.6469 109.625 47.4822 109.625 42.3138Z" fill="#BEBEBE"/>
<path d="M23.7131 53.2282C22.9739 54.7879 21.5946 55.4423 19.9333 55.4308C18.2073 55.4308 16.7174 54.7575 16.0773 53.0875C15.3069 51.1316 15.3069 48.9569 16.0773 47.001C16.6984 45.4071 18.1006 44.7186 19.7771 44.6805C21.4537 44.6425 22.8749 45.312 23.7436 46.8793C23.8922 47.1417 24.1971 47.5526 24.38 47.5298C25.6069 47.3624 26.8223 47.0961 28.1141 46.8488C27.8395 45.76 27.3191 44.7483 26.5926 43.8911C25.8661 43.034 24.9528 42.3541 23.9227 41.9035C22.1318 41.0781 20.2305 41.1427 18.3406 41.2835C16.7523 41.3913 15.2438 42.0188 14.0487 43.0689C12.8537 44.119 12.0386 45.5331 11.7297 47.0923C11.5055 48.7307 11.4481 50.3876 11.5583 52.0376C11.6078 53.7799 12.3927 55.2444 13.5549 56.5416C16.3745 59.7066 23.2216 59.7066 26.0603 56.8002C27.107 55.7934 27.8298 54.4983 28.1369 53.0799C27.0205 52.9239 25.9688 52.8174 24.9363 52.6196C24.3152 52.4903 24.0028 52.6158 23.7131 53.2282Z" fill="#BEBEBE"/>
<path d="M145.964 41.9529C145.964 41.7817 145.636 41.5116 145.442 41.4888C144.856 41.4507 144.268 41.4431 143.681 41.466C139.49 41.466 135.298 41.466 131.108 41.466C130.84 41.466 130.345 41.7018 130.345 41.8464C130.277 42.9267 130.308 44.0109 130.308 45.1787H136.069V46.1374C136.069 50.0252 136.069 53.9167 136.069 57.8083C136.069 58.0707 136.316 58.5462 136.45 58.5691C137.665 58.6299 138.888 58.6033 140.187 58.6033V45.1711H145.956C145.986 44.0185 146.013 42.9838 145.964 41.9529Z" fill="#BEBEBE"/>
</g>
<defs>
<clipPath id="clip0_3925_7239">
<rect width="135" height="18" fill="white" transform="translate(11.248 41)"/>
</clipPath>
</defs>
</svg>
