<svg width="157" height="100" viewBox="0 0 157 100" fill="none" xmlns="http://www.w3.org/2000/svg">
<path d="M71.3378 45.9901L74.07 43.9803H64.923V56.0197H74.07V54.0099H67.5364V50.936H73.1196V48.9261H67.5364V45.9901H71.3378Z" fill="#BEBEBE"/>
<path d="M58.0132 48.67H54.8454V45.9901H59.9139L62.6461 43.9803H52.232V56.0197H57.6766C60.7256 56.0197 62.4877 54.6404 62.4877 52.2365C62.4877 49.931 60.9038 48.67 58.0132 48.67ZM57.5777 54.0099H54.8454V50.6798H57.5777C59.2407 50.6798 60.0129 51.2315 60.0129 52.3547C60.0129 53.4778 59.1813 54.0099 57.5777 54.0099Z" fill="#BEBEBE"/>
<path d="M81.4747 43.9803H76.5052V56.0197H79.1187V52.6108H81.4945C84.6623 52.6108 86.6422 50.9557 86.6422 48.2956C86.6422 45.6355 84.6623 43.9803 81.4747 43.9803ZM81.4153 50.601H79.0988V45.9901H81.4153C83.0982 45.9901 84.0089 46.8177 84.0089 48.2956C84.0089 49.7734 83.0982 50.601 81.4153 50.601Z" fill="#BEBEBE"/>
<path d="M47.7575 53.4187C47.0645 53.7931 46.2924 53.9901 45.5004 53.9901C43.1444 53.9901 41.4417 52.3153 41.4417 50.0099C41.4417 47.7044 43.1444 46.0296 45.5004 46.0296C46.3518 46.0099 47.1833 46.2857 47.8763 46.7783L49.7572 45.399L49.6384 45.2808C48.5494 44.3153 47.0843 43.8227 45.4212 43.8227C43.6196 43.8227 41.9763 44.4335 40.7883 45.5369C39.6004 46.6798 38.9273 48.2759 38.9669 49.931C38.9471 51.6059 39.6004 53.2217 40.7883 54.4039C42.0357 55.5665 43.6988 56.2167 45.4014 56.1773C47.2823 56.1773 48.9256 55.5271 50.0343 54.3448L48.3515 53.1034L47.7575 53.4187Z" fill="#BEBEBE"/>
<path d="M118.063 44V56.0394H120.676V51.1133H126.24V56.0394H128.853V44H126.24V48.9458H120.676V44H118.063ZM113.568 56.0394H116.32L111.212 44H108.559L103.352 56.0394H105.986L107.035 53.6158H112.578L113.568 56.0394ZM107.827 51.6059L109.846 46.7783L111.747 51.6059H107.827ZM134.713 51.1724H136.337L140.336 56.0197H143.702L138.356 49.7931L143.029 43.9803H140.039L136.159 49.1429H134.713V43.9803H132.1V56.0197H134.713V51.1724ZM94.72 48.6897V46.0099H101.551V44H92.1066V56.0394H97.5513C100.6 56.0394 102.362 54.6601 102.362 52.2562C102.362 49.9507 100.778 48.6897 97.8878 48.6897H94.72ZM94.72 50.6995H97.4523C99.1153 50.6995 99.8875 51.2512 99.8875 52.3744C99.8875 53.4975 99.0758 54.0493 97.4523 54.0493H94.72V50.6995Z" fill="#BEBEBE"/>
<path d="M30.79 43.9015C31.2652 44.5123 31.6611 45.1823 31.9977 45.8916L22.8507 52.6108L19.0098 50.2069V47.33L22.8309 49.7143L30.79 43.9015Z" fill="#BEBEBE"/>
<path d="M15.1094 50.0099C15.1094 49.8719 15.1094 49.7537 15.1292 49.6158L12.8128 49.4975C12.8128 49.6552 12.793 49.8325 12.793 49.9901C12.793 52.7488 13.9215 55.2512 15.743 57.064L17.3863 55.4286C15.9806 54.0493 15.1094 52.1379 15.1094 50.0099Z" fill="#BEBEBE"/>
<path d="M22.8309 42.3251C22.9695 42.3251 23.0883 42.3251 23.2269 42.3448L23.3457 40.0394C23.1873 40.0394 23.0091 40.0197 22.8507 40.0197C20.0789 40.0197 17.5645 41.1429 15.743 42.9557L17.3863 44.5911C18.7722 43.1921 20.7125 42.3251 22.8309 42.3251Z" fill="#BEBEBE"/>
<path d="M22.8309 57.6946C22.6923 57.6946 22.5735 57.6946 22.4349 57.6749L22.3161 59.9803C22.4745 59.9803 22.6527 60 22.8111 60C25.5829 60 28.0974 58.8768 29.9189 57.064L28.2756 55.4286C26.8897 56.8473 24.9692 57.6946 22.8309 57.6946Z" fill="#BEBEBE"/>
<path d="M27.1866 43.665L29.1467 42.2266C27.4242 40.8473 25.2266 40 22.8309 40V42.3054C24.4544 42.3251 25.9591 42.8177 27.1866 43.665Z" fill="#BEBEBE"/>
<path d="M32.8887 50.0099C32.8887 49.399 32.8293 48.8079 32.7303 48.2167L30.5722 49.8128C30.5722 49.8719 30.5722 49.9507 30.5722 50.0099C30.5722 52.2759 29.5823 54.3054 28.0182 55.7044L29.5823 57.4187C31.6017 55.6059 32.8887 52.9458 32.8887 50.0099Z" fill="#BEBEBE"/>
<path d="M22.8309 57.6946C20.5541 57.6946 18.5148 56.7094 17.1091 55.1527L15.3866 56.7094C17.2279 58.7389 19.8809 60 22.8309 60V57.6946Z" fill="#BEBEBE"/>
<path d="M17.6635 44.3153L16.0994 42.601C14.0601 44.4335 12.793 47.0739 12.793 50.0099H15.1094C15.1094 47.7635 16.0994 45.7143 17.6635 44.3153Z" fill="#BEBEBE"/>
</svg>
