<svg width="157" height="100" viewBox="0 0 157 100" fill="none" xmlns="http://www.w3.org/2000/svg">
<g clip-path="url(#clip0_3925_7095)">
<g clip-path="url(#clip1_3925_7095)">
<path fill-rule="evenodd" clip-rule="evenodd" d="M42.3539 32.5L40.9225 36.3975H60.8059L62.2373 32.5H42.3539ZM40.1976 38.3463L38.7662 42.2439H58.6496L60.081 38.3463H40.1976ZM38.0505 44.2017L36.6191 48.0993H56.5025L57.9339 44.2017H38.0505Z" fill="#BEBEBE"/>
<path fill-rule="evenodd" clip-rule="evenodd" d="M78.8911 49.584V49.666C79.7995 49.9938 80.6712 50.5766 81.1208 50.95C82.5246 52.1065 83.1486 53.6364 83.1486 55.6216C83.1486 58.8908 81.4144 61.2403 78.5608 61.987C77.6891 62.2329 76.7808 62.3148 75.0925 62.3148H66.4583V38.4287H74.1015C75.6705 38.4287 76.744 38.5106 77.6983 38.7565C80.4693 39.5032 82.2861 41.4065 82.2861 44.4207C82.2861 46.0325 81.708 47.3985 80.7538 48.3091C80.3317 48.7189 79.7536 49.2107 78.8911 49.584ZM71.2387 52.1065V58.3899H74.5419C75.5329 58.3899 76.4413 58.308 77.1019 57.6888C77.7625 57.0695 78.0561 56.2864 78.0561 55.2482C78.0561 54.4651 77.8451 53.7184 77.4322 53.1811C76.7257 52.316 75.8632 52.1065 74.3768 52.1065H71.2387ZM71.202 47.9722H73.8905C74.7163 47.9722 75.1292 47.9722 75.542 47.8447C76.6615 47.5169 77.3588 46.5243 77.3588 45.1583C77.3588 43.5465 76.6156 42.8453 75.542 42.5175C75.0833 42.39 74.6337 42.3535 73.7253 42.3535H71.202V47.9722ZM90.333 62.3148V42.4355H83.433V38.4287H102.61L101.243 42.4355H95.1227V62.3148H90.333ZM104.096 62.3148V38.4287H119.631L118.263 42.4355H108.849V47.7263H112.694C115.795 47.7263 117.401 48.4731 118.52 49.4201C119.392 50.1668 120.878 51.8151 120.878 55.0843C120.878 58.308 119.346 60.0837 118.071 60.9944C116.584 62.0234 115.015 62.3148 111.831 62.3148H104.096ZM108.849 58.308H112.446C113.813 58.308 114.639 57.9802 115.217 57.2334C115.511 56.8601 115.924 56.1953 115.924 54.9568C115.924 53.7184 115.511 52.8532 114.685 52.2249C114.189 51.8515 113.529 51.6512 112.409 51.6512H108.858V58.308H108.849Z" fill="#BEBEBE"/>
</g>
</g>
<defs>
<clipPath id="clip0_3925_7095">
<rect width="85" height="35" fill="white" transform="translate(36.248 32.5)"/>
</clipPath>
<clipPath id="clip1_3925_7095">
<rect width="84.2593" height="35" fill="white" transform="translate(36.6191 32.5)"/>
</clipPath>
</defs>
</svg>
