<svg width="157" height="100" viewBox="0 0 157 100" fill="none" xmlns="http://www.w3.org/2000/svg">
<path d="M42.4379 40.5068C34.9717 40.5068 28.8906 46.5203 28.8906 54.0203C28.8906 61.5203 34.9717 67.5 42.4379 67.5C49.9041 67.5 56.019 61.4865 56.019 54.0203C56.019 46.5541 49.9379 40.5068 42.4379 40.5068ZM42.4379 61.8581C38.2825 61.8581 34.8703 58.1757 34.8703 54.0203C34.8703 49.8649 38.2825 46.1487 42.4379 46.1487C46.5933 46.1487 50.0393 49.8311 50.0393 54.0203C50.0393 58.2095 46.6271 61.8581 42.4379 61.8581Z" fill="#BEBEBE"/>
<path d="M34.6676 38.4797C36.2893 38.4797 37.6406 37.1284 37.6406 35.473C37.6406 33.8176 36.2893 32.5 34.6676 32.5C33.046 32.5 31.6609 33.8514 31.6609 35.473C31.6609 37.0946 33.0122 38.4797 34.6676 38.4797Z" fill="#BEBEBE"/>
<path d="M50.2081 38.4797C51.8298 38.4797 53.1811 37.1284 53.1811 35.473C53.1811 33.8176 51.8298 32.5 50.2081 32.5C48.5865 32.5 47.2014 33.8514 47.2014 35.473C47.2014 37.0946 48.5527 38.4797 50.2081 38.4797Z" fill="#BEBEBE"/>
<path d="M42.4379 38.4797C44.0596 38.4797 45.4109 37.1284 45.4109 35.473C45.4109 33.8176 44.0596 32.5 42.4379 32.5C40.8163 32.5 39.4312 33.8514 39.4312 35.473C39.4312 37.0946 40.7825 38.4797 42.4379 38.4797Z" fill="#BEBEBE"/>
<path d="M102.303 40.9797H95.7149L87.9109 51.8243V32.9392H81.9311V67.027H87.9109V56.1824L96.323 67.027H103.384L93.0122 53.8513L102.303 40.9797Z" fill="#BEBEBE"/>
<path d="M79.1271 40.9797H72.5393L64.7352 51.8243V32.9392H58.7555V67.027H64.7352V56.1824L73.1474 67.027H80.2082L69.8366 53.8513L79.1271 40.9797Z" fill="#BEBEBE"/>
<path d="M114.026 40.5068C106.56 40.5068 100.478 46.5203 100.478 54.0203C100.478 61.5203 106.56 67.5 114.026 67.5C121.492 67.5 127.607 61.4865 127.607 54.0203C127.607 46.5541 121.526 40.5068 114.026 40.5068ZM113.992 61.8581C109.837 61.8581 106.424 58.1757 106.424 54.0203C106.424 49.8649 109.837 46.1487 113.992 46.1487C118.147 46.1487 121.593 49.8311 121.593 54.0203C121.593 58.2095 118.181 61.8581 113.992 61.8581Z" fill="#BEBEBE"/>
</svg>
