<svg width="157" height="100" viewBox="0 0 157 100" fill="none" xmlns="http://www.w3.org/2000/svg">
<g clip-path="url(#clip0_3925_7292)">
<mask id="mask0_3925_7292" style="mask-type:luminance" maskUnits="userSpaceOnUse" x="41" y="32" width="75" height="36">
<path d="M115.49 32.5H41.248V67.5H115.49V32.5Z" fill="white"/>
</mask>
<g mask="url(#mask0_3925_7292)">
<path d="M81.0451 44.586C80.4173 45.2149 80.4173 46.2539 81.0451 46.9102C81.6728 47.5391 82.7101 47.5391 83.3651 46.9102L94.9382 35.3164C95.566 34.6875 95.566 33.6484 94.9382 32.9922C94.3104 32.3633 93.2732 32.3633 92.6181 32.9922L81.0451 44.586Z" fill="#BEBEBE"/>
<path d="M81.0451 34.5234C80.4173 35.1523 80.4173 36.1914 81.0451 36.8477C81.6728 37.4766 82.7101 37.4766 83.3651 36.8477L84.9209 35.2891C85.5487 34.6602 85.5487 33.6211 84.9209 32.9648C84.2932 32.3359 83.256 32.3359 82.6009 32.9648L81.0451 34.5234Z" fill="#BEBEBE"/>
<path d="M94.5548 51.1484C93.927 51.7773 93.927 52.8164 94.5548 53.4727C95.1826 54.1016 96.2198 54.1016 96.8749 53.4727L115.026 35.2891C115.654 34.6602 115.654 33.6211 115.026 32.9648C114.398 32.3359 113.361 32.3359 112.706 32.9648L94.5548 51.1484Z" fill="#BEBEBE"/>
<path d="M88.7677 46.9102C88.1399 47.5391 88.1399 48.5781 88.7677 49.2344C89.3955 49.8633 90.4327 49.8633 91.0878 49.2344L104.981 35.3164C105.609 34.6875 105.609 33.6484 104.981 32.9922C104.353 32.3633 103.316 32.3633 102.661 32.9922L88.7677 46.9102Z" fill="#BEBEBE"/>
<path d="M98.7853 59.2969C98.1575 58.668 98.1575 57.6289 98.7853 56.9727L112.678 43.0547C113.306 42.4258 114.343 42.4258 114.999 43.0547C115.654 43.6836 115.626 44.7227 114.999 45.3789L101.105 59.2969C100.478 59.9258 99.4404 59.9258 98.7853 59.2969Z" fill="#BEBEBE"/>
<path d="M111.151 67.0078C110.523 66.3789 110.523 65.3398 111.151 64.6836L112.706 63.125C113.334 62.4961 114.371 62.4961 115.026 63.125C115.654 63.7539 115.654 64.793 115.026 65.4492L113.471 67.0078C112.816 67.6641 111.778 67.6641 111.151 67.0078Z" fill="#BEBEBE"/>
<path d="M101.106 67.0078C100.478 66.3789 100.478 65.3398 101.106 64.6836L112.679 53.0898C113.306 52.4609 114.344 52.4609 114.999 53.0898C115.654 53.7188 115.627 54.7578 114.999 55.4141L103.426 67.0078C102.798 67.6641 101.761 67.6641 101.106 67.0078Z" fill="#BEBEBE"/>
<path d="M94.0092 67.5002C95.4558 67.5002 96.6022 66.297 96.3565 64.8752C95.2374 58.1213 89.9149 52.7892 83.1731 51.6681C81.7537 51.422 80.5527 52.5705 80.5527 54.0197V64.8478C80.5527 66.297 81.7537 67.5002 83.2003 67.5002H94.0092Z" fill="#BEBEBE"/>
<path fill-rule="evenodd" clip-rule="evenodd" d="M61.091 50.1094C61.4731 50.1094 61.7461 50.4375 61.6369 50.793C61.4731 51.3398 61.2548 51.8594 60.9545 52.3242L61.555 52.9531C61.7734 53.1719 61.7734 53.5273 61.555 53.7461C61.3366 53.9648 60.9818 53.9648 60.7634 53.7461L60.1903 53.1445L60.0538 53.2812C59.426 53.8281 58.6344 54.1289 57.8156 54.1289C56.2598 54.1016 55.168 53.3086 55.168 51.8047C55.168 50.7109 55.8776 50.0547 56.5327 49.6172L56.6692 49.5352L56.5327 49.3437C56.0414 48.7695 55.7958 48.3867 55.7958 47.7031C55.7958 46.6641 56.5873 45.8984 57.7883 45.8984C58.9893 45.8984 59.89 46.582 59.89 47.7031C59.89 48.5781 59.2895 49.0703 58.4161 49.6992L60.1084 51.4766C60.2721 51.2305 60.3813 50.9297 60.4632 50.6016C60.5451 50.3008 60.7907 50.1094 61.091 50.1094ZM59.3987 52.3242L57.4607 50.3008L57.1332 50.5195C56.6419 50.8477 56.4235 51.2578 56.4235 51.75C56.4235 52.5703 57.024 52.9805 57.8702 52.9805C58.4707 53.0078 58.9893 52.7891 59.3987 52.3242ZM58.1158 48.7148C58.498 48.4141 58.7436 48.1406 58.7436 47.7305C58.7436 47.2383 58.3342 46.9375 57.8156 46.9375C57.3243 46.9375 56.9421 47.2109 56.9421 47.7578C56.9421 48.2227 57.2424 48.5234 57.5153 48.7969L57.7337 48.9883L58.1158 48.7148Z" fill="#BEBEBE"/>
<path fill-rule="evenodd" clip-rule="evenodd" d="M41.5215 34.4141C41.5215 33.3477 42.3676 32.5 43.4321 32.5H48.8911C49.7919 32.5 50.5288 33.2383 50.5288 34.1406C50.5288 35.043 49.7919 35.7812 48.8911 35.7812H45.6157C45.1517 35.7812 44.7969 36.1367 44.7969 36.6016V38.5156C44.7969 38.9805 45.1517 39.3359 45.6157 39.3359H48.509C49.2733 39.3359 49.8738 39.9375 49.8738 40.7031C49.8738 41.4688 49.2733 42.0703 48.509 42.0703H45.6157C45.1517 42.0703 44.7969 42.4258 44.7969 42.8906V46.7188C44.7969 47.6211 44.0599 48.3594 43.1592 48.3594C42.2584 48.3594 41.5215 47.6211 41.5215 46.7188V34.4141Z" fill="#BEBEBE"/>
<path fill-rule="evenodd" clip-rule="evenodd" d="M54.0772 32.5C54.9779 32.5 55.7149 33.2383 55.7149 34.1406V38.5156C55.7149 39.7188 56.5337 40.9766 57.8985 40.9766C59.2632 40.9766 60.0821 39.7188 60.0821 38.5156V34.1406C60.0821 33.2383 60.819 32.5 61.7198 32.5C62.6205 32.5 63.3575 33.2383 63.3575 34.1406V38.5156C63.3575 41.5234 60.9009 43.7109 57.8985 43.7109C54.896 43.7109 52.4395 41.5234 52.4395 38.5156V34.1406C52.4395 33.2383 53.1764 32.5 54.0772 32.5Z" fill="#BEBEBE"/>
<path fill-rule="evenodd" clip-rule="evenodd" d="M65.2676 34.1406C65.2676 33.2383 66.0045 32.5 66.9053 32.5H66.9326C67.5331 32.5 68.079 32.8281 68.3519 33.3203L72.9102 41.3867C72.9102 41.3867 72.9102 37.2852 72.9102 34.1406C72.9102 33.2383 73.6471 32.5 74.5479 32.5C75.4486 32.5 76.1856 33.2383 76.1856 34.1406V46.7188C76.1856 47.6211 75.4486 48.3594 74.5479 48.3594H74.5206C73.9201 48.3594 73.3742 48.0312 73.1012 47.5391L68.543 39.4727C68.543 39.4727 68.543 43.4648 68.543 46.7188C68.543 47.6211 67.806 48.3594 66.9053 48.3594C66.0045 48.3594 65.2676 47.6211 65.2676 46.7188V34.1406Z" fill="#BEBEBE"/>
<path fill-rule="evenodd" clip-rule="evenodd" d="M65.2676 53.2812C65.2676 52.3789 66.0045 51.6406 66.9053 51.6406H66.9326C67.5331 51.6406 68.079 51.9688 68.3519 52.4609L72.8829 60.5273C72.8829 60.5273 72.8829 56.4258 72.8829 53.2812C72.8829 52.3789 73.6199 51.6406 74.5206 51.6406C75.4213 51.6406 76.1583 52.3789 76.1583 53.2812V65.8594C76.1583 66.7617 75.4213 67.5 74.5206 67.5H74.4933C73.8928 67.5 73.3469 67.1719 73.074 66.6797L68.543 58.6133C68.543 58.6133 68.543 62.6055 68.543 65.8594C68.543 66.7617 67.806 67.5 66.9053 67.5C66.0045 67.5 65.2676 66.7617 65.2676 65.8594V53.2812Z" fill="#BEBEBE"/>
<path fill-rule="evenodd" clip-rule="evenodd" d="M54.0772 56.2891C54.9779 56.2891 55.7149 57.0273 55.7149 57.9297V62.3047C55.7149 63.5078 56.5337 64.7656 57.8985 64.7656C59.2632 64.7656 60.0821 63.5078 60.0821 62.3047V57.9297C60.0821 57.0273 60.819 56.2891 61.7198 56.2891C62.6205 56.2891 63.3575 57.0273 63.3575 57.9297V62.3047C63.3575 65.3125 60.9009 67.5 57.8985 67.5C54.896 67.5 52.4395 65.3125 52.4395 62.3047V57.9297C52.4395 57.0273 53.1764 56.2891 54.0772 56.2891Z" fill="#BEBEBE"/>
<path d="M51.0742 63.0156C51.0742 64.4102 50.5829 65.5039 49.6003 66.2969C48.6177 67.0898 47.2529 67.5 45.5061 67.5C44.2232 67.5 43.0768 67.3086 42.0396 66.9258C41.5483 66.7344 41.248 66.2422 41.248 65.7227C41.248 64.7109 42.2853 64.0273 43.2679 64.3555C43.4589 64.4102 43.65 64.4648 43.8411 64.5195C44.5507 64.7109 45.0693 64.7383 45.6698 64.7383C46.3795 64.7383 46.8981 64.6016 47.2802 64.3281C47.6624 64.0547 47.8534 63.6445 47.8534 63.0977C47.8534 62.7969 47.7716 62.5234 47.6078 62.3047C47.444 62.0586 47.1984 61.8398 46.8708 61.6211C46.5433 61.4023 46.0247 61.1016 45.0421 60.6367C44.114 60.1992 43.4316 59.7617 42.9676 59.3516C42.5036 58.9414 42.1488 58.4766 41.8758 57.9297C41.6029 57.3828 41.4664 56.7539 41.4664 56.043C41.4664 54.6758 41.9031 53.6094 42.8039 52.8164C43.7046 52.0234 44.9602 51.6406 46.5706 51.6406C47.3621 51.6406 48.0991 51.7227 48.8088 51.9141C49.1363 51.9961 49.4638 52.1055 49.7914 52.2148C50.5011 52.4609 50.8013 53.2539 50.5283 53.9648C50.2281 54.6758 49.4365 55.0039 48.6996 54.7578C48.4539 54.6758 48.2083 54.5937 48.0172 54.5391C47.4986 54.4023 47.1165 54.3477 46.6252 54.3477C46.0247 54.3477 45.5607 54.4844 45.2331 54.7852C44.9056 55.0859 44.7418 55.4414 44.7418 55.9062C44.7418 56.207 44.7964 56.4531 44.9329 56.6719C45.0693 56.8906 45.2604 57.082 45.5607 57.3008C45.8609 57.4922 46.3795 57.8477 47.444 58.3672C48.8634 59.0508 49.8187 59.7617 50.3373 60.4453C50.8013 61.1562 51.0742 62.0039 51.0742 63.0156Z" fill="#BEBEBE"/>
</g>
</g>
<defs>
<clipPath id="clip0_3925_7292">
<rect width="74" height="35" fill="white" transform="translate(41.248 32.5)"/>
</clipPath>
</defs>
</svg>
