<svg width="157" height="100" viewBox="0 0 157 100" fill="none" xmlns="http://www.w3.org/2000/svg">
<g clip-path="url(#clip0_3925_7179)">
<path d="M38.6367 43.1484V56.8398H41.4694V51.2011H46.9682V56.8398H49.8009V43.1484H46.9682V48.892H41.4694V43.1484H38.6367Z" fill="#BEBEBE"/>
<path fill-rule="evenodd" clip-rule="evenodd" d="M57.0213 50.6424L54.1888 51.0465C52.2097 51.3288 51.1914 52.3283 51.1914 53.8677C51.1914 55.3304 52.19 56.8488 54.7265 56.8488C55.1411 56.8488 55.5575 56.8504 55.9803 56.852C57.1433 56.8564 58.3541 56.861 59.7058 56.8335V50.296C59.7058 48.1404 58.1322 47.1016 55.8733 47.1016C54.8181 47.1016 53.5221 47.2555 52.0778 47.5825V49.6032C53.411 49.2569 54.3552 49.1221 55.3365 49.1221C56.4659 49.1221 57.0213 49.5263 57.0213 50.3537V50.6424ZM55.2255 52.5669L57.0213 52.3268V55.042C56.3785 55.0497 56.0964 55.0496 55.6781 55.0494L55.4846 55.0494C54.3923 55.0494 53.9109 54.453 53.9109 53.837C53.9109 53.1827 54.2591 52.6962 55.2255 52.5669Z" fill="#BEBEBE"/>
<path d="M72.8519 50.9312C72.8519 49.6995 72.389 49.1221 71.4263 49.1221C70.871 49.1221 70.297 49.2954 69.7045 49.4878C69.76 49.7958 69.7972 50.1614 69.7972 50.5463V56.8391H67.1125V50.8349C67.1125 49.6802 66.6681 49.1221 65.761 49.1221C65.3771 49.1221 64.9932 49.1681 64.5972 49.2155C64.4202 49.2367 64.2405 49.2583 64.0575 49.2761V56.839H61.373V47.5825C63.0207 47.3324 64.5945 47.1016 66.2978 47.1016C67.4271 47.1016 68.2789 47.3517 68.8528 47.8713C70.1119 47.4478 71.2412 47.1016 72.4817 47.1016C74.5553 47.1016 75.5366 48.2176 75.5366 50.5461V56.839H72.8519V50.9312Z" fill="#BEBEBE"/>
<path d="M77.2031 43.1484V56.8397H79.8876V52.1635L82.9611 56.8397H86.0343L82.4241 51.6439L86.0343 47.2176H82.9611L79.8876 51.2011V43.1484H77.2031Z" fill="#BEBEBE"/>
<path fill-rule="evenodd" clip-rule="evenodd" d="M90.1814 56.9545C87.4417 56.9545 85.5898 55.5304 85.5898 52.5476V51.5084C85.5898 48.5256 87.4409 47.1016 90.1814 47.1016C92.9212 47.1016 94.773 48.4679 94.773 51.5084V52.5476C94.773 55.5304 92.9212 56.9545 90.1814 56.9545ZM92.0887 51.3736C92.0887 49.8534 91.4587 49.1221 90.1814 49.1221C88.8854 49.1221 88.2742 49.8533 88.2742 51.3736V52.663C88.2742 54.2026 88.8854 54.9337 90.1814 54.9337C91.4587 54.9337 92.0887 54.2026 92.0887 52.663V51.3736Z" fill="#BEBEBE"/>
<path d="M101.864 49.6037V47.4867C101.4 47.2172 100.771 47.1211 100.012 47.1211C98.8823 47.1211 97.5121 47.3327 96.1426 47.5829V56.8393H98.8268V49.4497C99.3451 49.3342 99.8078 49.2765 100.253 49.2765C100.863 49.2765 101.4 49.3919 101.864 49.6037Z" fill="#BEBEBE"/>
<path d="M137.436 43.3379V56.9543H140.099V52.3035L143.148 56.9543H146.198L142.616 51.7868L146.198 47.3848H143.148L140.099 51.3465V43.3379H137.436Z" fill="#BEBEBE"/>
<path fill-rule="evenodd" clip-rule="evenodd" d="M110.747 56.9547H105.029V43.46H110.432C113.208 43.46 114.818 44.5781 114.818 46.9685C114.818 48.3566 114.096 49.3013 113.134 49.8604C114.67 50.3615 115.558 51.4797 115.558 53.2726C115.558 55.7594 113.782 56.9547 110.747 56.9547ZM107.861 50.882V54.7185H110.599C111.95 54.7185 112.727 54.063 112.727 52.7904C112.727 51.5182 111.968 50.882 110.618 50.882H107.861ZM107.861 45.677V48.9351H110.21C111.339 48.9351 111.986 48.4145 111.986 47.3156C111.986 46.2168 111.376 45.677 110.21 45.677H107.861Z" fill="#BEBEBE"/>
<path fill-rule="evenodd" clip-rule="evenodd" d="M119.919 51.1782L122.729 50.7762L122.73 50.7765V50.4894C122.73 49.6664 122.179 49.2645 121.058 49.2645C120.085 49.2645 119.147 49.3985 117.825 49.743V47.7333C119.258 47.408 120.544 47.2549 121.591 47.2549C123.832 47.2549 125.393 48.2882 125.393 50.4318V56.9335C124.052 56.9608 122.851 56.9563 121.697 56.9519H121.696H121.694H121.694H121.692C121.274 56.9503 120.863 56.9488 120.453 56.9488C117.936 56.9488 116.945 55.4386 116.945 53.9839C116.945 52.4529 117.956 51.4589 119.919 51.1782ZM122.729 52.4512L120.948 52.6902C119.989 52.8186 119.644 53.3026 119.644 53.9532C119.644 54.5657 120.122 55.1589 121.205 55.1589C121.274 55.1589 121.337 55.159 121.399 55.159C121.813 55.1592 122.093 55.1593 122.729 55.1517V52.4512Z" fill="#BEBEBE"/>
<path d="M131.415 49.2244C132.414 49.2244 132.914 49.7449 132.914 50.8439V56.955H135.597V50.651C135.597 48.3184 134.412 47.2002 131.97 47.2002C130.194 47.2002 128.547 47.4315 126.9 47.6821V56.9549H129.583V49.3979C129.691 49.3843 129.798 49.37 129.905 49.3559L129.906 49.3558C130.404 49.2896 130.897 49.2244 131.415 49.2244Z" fill="#BEBEBE"/>
<path d="M18.6512 60.5687C24.4479 62.6931 30.8574 59.6836 32.9672 53.8467C34.3044 50.1473 33.5935 46.2 31.4177 43.2642L30.4938 45.8202C31.6127 47.9991 31.8582 50.6241 30.9593 53.1108C29.2531 57.8311 24.0697 60.2649 19.382 58.5469C19.1049 58.4453 18.8357 58.3315 18.5748 58.2063L21.1488 51.0855H23.0092L21.3993 55.5394L25.1168 55.5489L30.0951 41.7763C29.029 40.7734 27.749 39.9655 26.2916 39.4313C20.4949 37.3069 14.0853 40.3164 11.9755 46.1533C10.6383 49.8528 11.3492 53.8 13.525 56.7358L14.4489 54.1798C13.33 52.001 13.0845 49.3758 13.9834 46.8892C15.6896 42.1689 20.8729 39.7351 25.5607 41.4532C25.8378 41.5547 26.107 41.6685 26.3678 41.7937L23.7869 48.9339H21.9265L23.5434 44.4606L19.8259 44.4511L14.8476 58.2237C15.9137 59.2266 17.1937 60.0345 18.6512 60.5687Z" fill="#BEBEBE"/>
</g>
<defs>
<clipPath id="clip0_3925_7179">
<rect width="136" height="24" fill="white" transform="translate(10.748 38)"/>
</clipPath>
</defs>
</svg>
