<svg width="157" height="100" viewBox="0 0 157 100" fill="none" xmlns="http://www.w3.org/2000/svg">
<path fill-rule="evenodd" clip-rule="evenodd" d="M18.1374 40.5437C16.5938 42.0878 16.5938 44.5724 16.5938 49.5417V50.4583C16.5938 55.4276 16.5938 57.9122 18.1374 59.4563C19.6815 61 22.1662 61 27.1354 61H28.0521C33.0213 61 35.506 61 37.0501 59.4563C38.5938 57.9127 38.5938 55.4276 38.5938 50.4583V49.5417C38.5938 44.5724 38.5938 42.0878 37.0501 40.5437C35.5064 39 33.0213 39 28.0521 39H27.1354H27.131C22.1647 39 19.6806 39 18.1374 40.5437ZM20.9402 45.875H22.5415C22.9505 45.875 23.1047 46.0537 23.2585 46.4988C24.0417 48.784 25.3621 50.7815 25.9047 50.7815C26.1088 50.7815 26.2021 50.6875 26.2021 50.1696V47.8069C26.1654 47.1347 25.931 46.844 25.7574 46.6286C25.6502 46.4957 25.5662 46.3914 25.5662 46.244C25.5662 46.0643 25.719 45.875 25.9734 45.875H28.4897C28.8288 45.875 28.9473 46.057 28.9473 46.4649V49.643C28.9473 49.9826 29.0946 50.1017 29.1961 50.1017C29.3997 50.1017 29.5695 49.9826 29.9428 49.6086C31.0962 48.317 31.9106 46.3287 31.9106 46.3287C32.0122 46.0904 32.1998 45.875 32.607 45.875H34.2078C34.6928 45.875 34.7944 46.1248 34.6928 46.4649C34.4887 47.3994 32.5379 50.1526 32.5379 50.1526C32.3686 50.4244 32.3 50.5605 32.5379 50.8662C32.6215 50.9837 32.8003 51.1593 33.0049 51.3601C33.2147 51.566 33.4515 51.7985 33.6405 52.0222C34.3286 52.7972 34.847 53.4512 34.9911 53.9018C35.1233 54.3542 34.8946 54.5833 34.437 54.5833H32.8357C32.4068 54.5833 32.1909 54.3427 31.7244 53.8227C31.5266 53.6022 31.2837 53.3315 30.9603 53.0076C30.0105 52.09 29.6033 51.9708 29.3654 51.9708C29.0429 51.9708 28.9468 52.0625 28.9468 52.5208V53.9595C28.9468 54.3542 28.821 54.5833 27.803 54.5833C26.1065 54.5833 24.2421 53.5516 22.919 51.6482C20.9338 48.861 20.3912 46.7536 20.3912 46.3287C20.3912 46.0904 20.4827 45.875 20.9402 45.875Z" fill="#BEBEBE"/>
<path d="M53.5343 49.8073C54.4065 49.3994 54.9689 48.721 54.9689 47.6742C54.9689 46.0847 53.515 44.96 51.4214 44.96H46.5938V55.0415H51.634C53.8056 55.0415 55.3181 53.859 55.3181 52.2498C55.3181 51.0283 54.5229 50.1176 53.5343 49.8073ZM48.8231 46.802H51.4209C52.1964 46.802 52.7395 47.2672 52.7395 47.9066C52.7395 48.546 52.1964 48.9928 51.4209 48.9928H48.8231V46.802ZM51.634 53.1999H48.8231V50.7377H51.634C52.5067 50.7377 53.0883 51.2419 53.0883 51.9784C53.0883 52.715 52.5063 53.1999 51.634 53.1999ZM63.6103 55.0415H66.5377L61.9039 49.8073L66.1499 44.96H63.4939L60.1205 48.8764H59.5774V44.96H57.3481V55.0415H59.5774V51.0283H60.1205L63.6103 55.0415ZM72.2283 55.2353C75.3885 55.2353 77.6183 53.0638 77.6183 50.0012C77.6183 46.9386 75.3885 44.7661 72.2283 44.7661C69.0681 44.7661 66.8388 46.9377 66.8388 50.0007C66.8388 53.0638 69.0681 55.2353 72.2283 55.2353ZM72.2283 53.1999C70.406 53.1999 69.1653 51.901 69.1653 50.0007C69.1653 48.1005 70.406 46.8015 72.2283 46.8015C74.0511 46.8015 75.2918 48.1009 75.2918 50.0007C75.2918 51.9005 74.0511 53.1999 72.2283 53.1999ZM86.3033 44.96V48.9346H81.786V44.96H79.5566V55.0415H81.786V50.9701H86.3033V55.0415H88.5331V44.96H86.3033ZM93.5688 55.0415H95.7986V46.9959H99.2883V44.96H90.079V46.9959H93.5688V55.0415ZM104.568 44.7661C102.61 44.7661 100.885 45.7744 100.381 47.5193L102.436 47.8681C102.746 47.2475 103.444 46.6659 104.452 46.6659C105.673 46.6659 106.391 47.5385 106.488 48.8567H104.316C101.35 48.8567 99.8764 50.1556 99.8764 52.0169C99.8764 53.8975 101.331 55.2353 103.386 55.2353C105.034 55.2353 106.139 54.2852 106.624 53.4515L107.089 55.0419H108.737V49.3797C108.737 46.4523 107.147 44.7656 104.568 44.7656V44.7661ZM103.909 53.3548C102.823 53.3548 102.125 52.7924 102.125 51.9202C102.125 51.1447 102.688 50.6016 104.394 50.6016H106.507C106.507 52.2498 105.46 53.3548 103.909 53.3548ZM117.418 55.0415H120.345L115.711 49.8073L119.957 44.96H117.301L113.928 48.8764H113.385V44.96H111.156V55.0415H113.385V51.0283H113.928L117.418 55.0415ZM124.127 55.0415H126.357V46.9959H129.846V44.96H120.637V46.9959H124.127V55.0415ZM140.904 49.8843C140.904 46.9762 138.732 44.7661 135.669 44.7661C132.606 44.7661 130.435 46.9569 130.435 50.0007C130.435 53.0445 132.606 55.2353 135.669 55.2353C137.763 55.2353 139.741 54.2467 140.497 52.3272L138.403 51.9784C137.918 52.6957 136.988 53.1999 135.805 53.1999C134.099 53.1999 132.974 52.1526 132.761 50.6016H140.865C140.884 50.3885 140.904 50.1561 140.904 49.8843ZM135.669 46.7048C137.065 46.7048 138.112 47.5968 138.48 48.8567H132.897C133.265 47.5578 134.312 46.7048 135.669 46.7048Z" fill="#BEBEBE"/>
</svg>
