<svg width="157" height="100" viewBox="0 0 157 100" fill="none" xmlns="http://www.w3.org/2000/svg">
<g clip-path="url(#clip0_3925_7250)">
<g clip-path="url(#clip1_3925_7250)">
<path d="M30.9805 43.5586H34.1644V48.3976H39.6158V43.5586H42.7997V56.0691H39.6158V50.9941H34.1644V56.0691H30.9805V43.5586Z" fill="#BEBEBE"/>
<path d="M50.7681 56.3524C49.8997 56.3524 49.0716 56.2265 48.2836 55.9747C47.5118 55.7072 46.8364 55.3138 46.2575 54.7945C45.6786 54.2594 45.2203 53.5906 44.8826 52.7881C44.5449 51.9698 44.3761 51.0177 44.3761 49.9319V49.4598C44.3761 48.4212 44.5369 47.5164 44.8585 46.7453C45.1801 45.9742 45.6223 45.3369 46.1851 44.8333C46.7479 44.314 47.3992 43.9285 48.1389 43.6767C48.8786 43.4092 49.6746 43.2754 50.5269 43.2754C52.537 43.2754 54.0646 43.7947 55.1099 44.8333C56.1551 45.8719 56.6777 47.3747 56.6777 49.3418V50.6636H47.6324C47.6485 51.2144 47.7449 51.6944 47.9218 52.1035C48.0987 52.4969 48.3319 52.8195 48.6213 53.0713C48.9108 53.3231 49.2404 53.5119 49.6103 53.6378C49.9962 53.748 50.3822 53.8031 50.7681 53.8031C51.5882 53.8031 52.2073 53.685 52.6254 53.449C53.0435 53.2129 53.341 52.8667 53.5179 52.4104H56.4365C56.1792 53.7165 55.544 54.7 54.531 55.361C53.5179 56.0219 52.2636 56.3524 50.7681 56.3524ZM50.6475 45.8247C50.2776 45.8247 49.9078 45.8719 49.5379 45.9663C49.1842 46.0607 48.8706 46.2102 48.5972 46.4148C48.3238 46.6194 48.0987 46.8948 47.9218 47.241C47.7449 47.5872 47.6485 48.0042 47.6324 48.492H53.5903C53.5742 47.9727 53.4857 47.54 53.3249 47.1938C53.1802 46.8476 52.9711 46.5722 52.6978 46.3676C52.4405 46.163 52.135 46.0214 51.7812 45.9427C51.4274 45.864 51.0495 45.8247 50.6475 45.8247Z" fill="#BEBEBE"/>
<path d="M61.1235 46.1552H57.0471V43.5586H68.3839V46.1552H64.3075V56.0691H61.1235V46.1552Z" fill="#BEBEBE"/>
<path d="M75.1378 56.3524C74.2694 56.3524 73.4413 56.2265 72.6533 55.9747C71.8814 55.7072 71.2061 55.3059 70.6272 54.7708C70.0483 54.2358 69.59 53.567 69.2523 52.7645C68.9146 51.9619 68.7457 51.0177 68.7457 49.9319V49.4598C68.7457 48.4369 68.9146 47.54 69.2523 46.7689C69.59 45.9978 70.0483 45.3526 70.6272 44.8333C71.2061 44.314 71.8814 43.9285 72.6533 43.6767C73.4413 43.4092 74.2694 43.2754 75.1378 43.2754C76.0061 43.2754 76.8262 43.4092 77.5981 43.6767C78.37 43.9285 79.0454 44.314 79.6243 44.8333C80.2192 45.3526 80.6856 45.9978 81.0233 46.7689C81.361 47.54 81.5298 48.4369 81.5298 49.4598V49.9319C81.5298 51.002 81.361 51.9383 81.0233 52.7409C80.6856 53.5434 80.2192 54.2122 79.6243 54.7472C79.0454 55.2823 78.37 55.6836 77.5981 55.9511C76.8262 56.2186 76.0061 56.3524 75.1378 56.3524ZM75.1378 53.7086C76.0383 53.7086 76.786 53.3939 77.381 52.7645C77.9921 52.135 78.2976 51.1908 78.2976 49.9319V49.4598C78.2976 48.311 77.9921 47.4377 77.381 46.8397C76.786 46.226 76.0383 45.9191 75.1378 45.9191C74.2212 45.9191 73.4654 46.226 72.8704 46.8397C72.2754 47.4377 71.9779 48.311 71.9779 49.4598V49.9319C71.9779 51.2065 72.2754 52.1586 72.8704 52.7881C73.4654 53.4018 74.2212 53.7086 75.1378 53.7086Z" fill="#BEBEBE"/>
<path d="M82.9733 56.3524C82.8447 56.3524 82.6838 56.3445 82.4909 56.3288C82.2979 56.3288 82.1371 56.313 82.0085 56.2815V53.4726C82.0889 53.4883 82.2095 53.4962 82.3703 53.4962C82.6758 53.4962 82.9411 53.4096 83.1663 53.2365C83.3914 53.0477 83.5763 52.733 83.721 52.2924C83.8819 51.8517 83.9944 51.2695 84.0587 50.5456C84.1391 49.806 84.1793 48.8933 84.1793 47.8075V43.5586H94.3101V56.0691H91.1262V46.1552H87.1221V48.2796C87.1221 49.9004 87.0337 51.238 86.8568 52.2924C86.696 53.331 86.4387 54.1493 86.0849 54.7472C85.7472 55.3452 85.313 55.7622 84.7824 55.9983C84.2678 56.2343 83.6648 56.3524 82.9733 56.3524Z" fill="#BEBEBE"/>
<path d="M102.263 56.3524C101.395 56.3524 100.567 56.2265 99.779 55.9747C99.0071 55.7072 98.3317 55.3059 97.7528 54.7708C97.1739 54.2358 96.7156 53.567 96.3779 52.7645C96.0402 51.9619 95.8714 51.0177 95.8714 49.9319V49.4598C95.8714 48.4369 96.0402 47.54 96.3779 46.7689C96.7156 45.9978 97.1739 45.3526 97.7528 44.8333C98.3317 44.314 99.0071 43.9285 99.779 43.6767C100.567 43.4092 101.395 43.2754 102.263 43.2754C103.132 43.2754 103.952 43.4092 104.724 43.6767C105.496 43.9285 106.171 44.314 106.75 44.8333C107.345 45.3526 107.811 45.9978 108.149 46.7689C108.487 47.54 108.655 48.4369 108.655 49.4598V49.9319C108.655 51.002 108.487 51.9383 108.149 52.7409C107.811 53.5434 107.345 54.2122 106.75 54.7472C106.171 55.2823 105.496 55.6836 104.724 55.9511C103.952 56.2186 103.132 56.3524 102.263 56.3524ZM102.263 53.7086C103.164 53.7086 103.912 53.3939 104.507 52.7645C105.118 52.135 105.423 51.1908 105.423 49.9319V49.4598C105.423 48.311 105.118 47.4377 104.507 46.8397C103.912 46.226 103.164 45.9191 102.263 45.9191C101.347 45.9191 100.591 46.226 99.9961 46.8397C99.4011 47.4377 99.1036 48.311 99.1036 49.4598V49.9319C99.1036 51.2065 99.4011 52.1586 99.9961 52.7881C100.591 53.4018 101.347 53.7086 102.263 53.7086Z" fill="#BEBEBE"/>
<path d="M110.455 43.5586H119.621V46.1552H113.639V56.0691H110.455V43.5586Z" fill="#BEBEBE"/>
<path d="M120.821 43.5586H124.004V51.5842L129.697 43.5586H132.64V56.0691H129.456V48.0435L123.763 56.0691H120.821V43.5586Z" fill="#BEBEBE"/>
<path d="M137.4 51.3718C136.419 51.0571 135.704 50.585 135.253 49.9555C134.803 49.326 134.578 48.5864 134.578 47.7367C134.578 47.1229 134.682 46.5643 134.892 46.0607C135.117 45.5414 135.446 45.1008 135.88 44.7389C136.315 44.3612 136.861 44.0701 137.521 43.8655C138.196 43.6609 138.984 43.5586 139.885 43.5586H145.915V56.0691H142.731V51.7495H140.439L137.665 56.0691H134.096L137.4 51.3718ZM137.762 47.7367C137.762 48.2717 137.939 48.6651 138.293 48.9169C138.662 49.1687 139.153 49.2946 139.764 49.2946H142.731V46.1552H139.764C139.153 46.1552 138.662 46.2889 138.293 46.5564C137.939 46.8082 137.762 47.2016 137.762 47.7367Z" fill="#BEBEBE"/>
<ellipse cx="21.8664" cy="46.2064" rx="3.45639" ry="3.53199" transform="rotate(90 21.8664 46.2064)" fill="#BEBEBE"/>
<ellipse cx="14.114" cy="53.7936" rx="3.45639" ry="3.53199" transform="rotate(-90 14.114 53.7936)" fill="#BEBEBE"/>
<ellipse cx="14.114" cy="46.2077" rx="3.45639" ry="3.53199" transform="rotate(-90 14.114 46.2077)" fill="#BEBEBE"/>
<ellipse cx="21.8684" cy="53.7923" rx="3.45639" ry="3.53199" transform="rotate(90 21.8684 53.7923)" fill="#BEBEBE"/>
<ellipse cx="17.905" cy="49.9157" rx="3.45639" ry="3.53199" transform="rotate(-90 17.905 49.9157)" fill="#BEBEBE"/>
</g>
</g>
<defs>
<clipPath id="clip0_3925_7250">
<rect width="136" height="15" fill="white" transform="translate(10.248 42.5)"/>
</clipPath>
<clipPath id="clip1_3925_7250">
<rect width="135.333" height="14.5" fill="white" transform="translate(10.582 42.75)"/>
</clipPath>
</defs>
</svg>
