<svg width="138" height="28" viewBox="0 0 138 28" fill="none" xmlns="http://www.w3.org/2000/svg">
<path fill-rule="evenodd" clip-rule="evenodd" d="M1.875 13.946C1.875 6.62334 7.8052 0.69314 15.1279 0.676758V5.47662C10.459 5.47662 6.67486 9.27718 6.67486 13.946C6.67486 18.6312 10.4754 22.4154 15.1442 22.4154C19.7967 22.4154 23.6136 18.6639 23.6136 13.9132H28.4135C28.4135 21.2686 22.4833 27.2152 15.1442 27.2152C7.8052 27.2152 1.875 21.2686 1.875 13.946Z" fill="black"/>
<path d="M9.29688 13.9465C9.29688 10.7029 11.9343 8.06543 15.1779 8.06543C18.4215 8.06543 21.059 10.7029 21.059 13.9465C21.059 17.2065 18.4215 19.8275 15.1779 19.8275C11.9343 19.8275 9.29688 17.2065 9.29688 13.9465Z" fill="black"/>
<path d="M19.2578 6.49183C19.2578 4.62431 20.7649 3.11719 22.6325 3.11719C24.5 3.11719 26.0071 4.62431 26.0071 6.49183C26.0071 8.35935 24.5 9.86647 22.6325 9.86647C20.7649 9.86647 19.2578 8.35935 19.2578 6.49183Z" fill="black"/>
<path d="M122.85 9.83374L122.441 11.8487C121.474 16.2226 121.13 17.6315 120.295 21.989L120.114 22.1528L117.461 22.2347L117.33 22.0545L118.394 17.5659L118.706 16.0916C117.559 16.0588 116.429 16.0424 115.282 16.0424C114.397 16.0424 113.709 16.0588 113.021 16.0752C112.628 17.8444 112.3 19.3843 111.809 21.989L111.629 22.1528L108.975 22.2347L108.844 22.0545L109.909 17.5659L110.334 15.6165C111.039 12.5367 111.17 11.8651 111.58 9.03103L111.76 8.85083C112.972 8.68702 113.267 8.63787 114.512 8.37576L114.643 8.55596L114.364 9.85012L113.955 11.8651L113.529 13.7654C114.479 13.7817 115.446 13.7981 116.412 13.7981C117.428 13.7981 118.099 13.7817 119.23 13.749C119.59 12.078 119.738 11.177 120.065 9.01465L120.245 8.83445C121.474 8.67063 121.753 8.62148 123.014 8.35938L123.145 8.53958L122.85 9.83374Z" fill="black"/>
<path d="M90.8573 15.6824C91.0375 14.9288 91.1685 14.1589 91.1685 13.4381C91.1685 10.7842 89.4648 10.3419 88.4983 10.3419C84.3865 10.3419 83.8623 16.7308 83.8623 17.6973C83.8623 19.7942 85.1237 20.7116 86.5325 20.7116C89.3338 20.7116 90.3822 17.8448 90.8573 15.6824ZM93.5766 16.5015C93.0033 18.7622 91.3979 22.661 86.4834 22.661C82.994 22.661 81.0938 20.859 81.0938 17.2878C81.0938 16.8291 81.1265 16.3213 81.2084 15.7807C81.2248 15.6496 81.2412 15.5186 81.2576 15.3875C82.2077 9.49009 84.7633 3.88752 90.3822 3.83838C91.1358 3.822 92.6429 3.75647 93.6749 3.51074L93.2982 5.86972C92.2497 6.13183 90.6116 6.27926 89.645 6.27926C88.4492 6.29565 87.6301 6.73795 87.0567 7.29493C86.7782 7.55704 86.5489 7.86829 86.3851 8.1304C86.2212 8.39251 86.0902 8.63823 86.0083 8.83482C86.7618 8.60547 87.5809 8.45804 88.4983 8.45804C91.9221 8.45804 93.9698 10.3747 93.9698 13.7493C93.9698 14.6503 93.806 15.5841 93.5766 16.5015Z" fill="black"/>
<path d="M127.355 14.0936C127.977 13.5531 128.338 13.209 129.206 12.3736C130.107 11.4889 132.335 9.1955 132.744 8.7532L133.039 8.60576H136.037L136.119 8.8351C135.857 9.06445 135.726 9.17912 134.677 10.0637C134.268 10.4078 134.006 10.6699 133.514 11.1122L130.123 14.2411L134.17 21.9405L134.006 22.1535L131.106 22.2354L130.893 22.0716C130.222 20.4498 130.041 20.0894 129.091 18.1891L127.257 14.4868C126.683 17.0424 126.323 18.6642 125.684 22.0224L125.504 22.1862L122.85 22.2682L122.719 22.088L123.784 17.5994L124.193 15.6499C124.898 12.5701 125.029 11.8985 125.438 9.06445L125.618 8.88425C126.847 8.72043 127.125 8.67129 128.387 8.40918L128.518 8.58938L128.239 9.88353L127.83 11.8985L127.355 14.0936Z" fill="black"/>
<path d="M104.286 18.8444C104.007 19.0737 103.712 19.3358 103.417 19.516C102.746 19.9419 101.845 20.1221 101.14 20.1221C98.7486 20.1221 98.077 18.1072 98.077 16.8622C98.077 16.7311 98.1261 13.3565 100.878 11.4889C102.418 10.4405 104.122 10.3914 104.99 10.3914C105.383 10.3914 105.776 10.4078 106.17 10.4078L104.286 18.8444ZM109.299 8.63852L109.167 8.42556L105.547 8.40918C103.139 8.40918 99.7643 8.55662 97.3234 11.4234C96.2258 12.734 95.2266 14.9783 95.2266 17.0424C95.2266 20.3023 97.4053 22.1862 100.076 22.1862C102.303 22.1862 103.45 21.2197 103.893 20.8593L103.712 21.9078L103.843 22.088L106.301 22.0388L106.481 21.8586C107.005 18.7461 107.185 17.7468 108.103 13.7333L109.299 8.63852Z" fill="black"/>
<path d="M40.2948 22.5791C37.4608 22.5791 33.3654 21.6781 34.8561 15.1254C35.4131 12.6682 37.1168 7.44238 44.1118 7.44238C50.9102 7.44238 49.8946 13.0122 49.485 14.978C48.2236 20.5314 44.8326 22.5791 40.2948 22.5791ZM41.2286 19.6959C43.2272 19.6959 44.1609 17.6155 44.7671 14.9452C45.193 13.0613 45.6517 10.2928 43.2436 10.2928C41.1958 10.2928 40.2785 12.2586 39.6887 14.9452C39.1154 17.4189 38.9843 19.6959 41.2286 19.6959Z" fill="black"/>
<path d="M56.9236 22.2677C55.6131 22.2677 53.4507 22.2677 52.5497 22.3005L52.4023 22.1203C52.648 21.252 53.2705 18.8931 53.9094 16.0263C54.4336 13.7 54.8923 11.6523 55.0725 10.7186C53.9749 10.7513 52.2876 10.7513 51.4521 10.7677L51.3047 10.5711C51.5177 9.86672 51.8289 8.63808 52.0255 7.9009L52.2712 7.75347C53.0084 7.78623 55.7769 7.80261 58.0212 7.80261C60.7242 7.80261 63.3617 7.75347 63.9186 7.7207L64.0988 7.86814C63.9023 8.52341 63.5419 9.86672 63.3617 10.5384L63.0996 10.7022C62.0184 10.6858 61.1993 10.6858 59.6266 10.6858C59.4956 11.2755 59.0696 13.0284 58.3652 16.1409C57.841 18.4999 57.3987 20.6459 57.153 22.022L56.9236 22.2677Z" fill="black"/>
<path d="M72.1075 11.0626C71.2229 11.0626 70.24 11.0953 69.7977 11.0953C69.6666 11.7015 69.126 13.9458 68.6346 16.1246C68.0612 18.6965 67.537 21.1046 67.3404 22.1039L67.0783 22.2677C65.735 22.2677 64.0149 22.2677 62.6389 22.3005L62.5078 22.1203C62.7863 20.9899 63.5071 17.9429 64.1951 14.8959C64.8832 11.8325 65.4893 8.83466 65.6695 7.98281L65.8988 7.78623C67.3732 7.78623 68.8639 7.83537 72.5334 7.83537C75.4003 7.83537 78.1852 7.75347 79.6595 7.7207L79.7906 7.88452C79.594 8.6217 78.7749 12.1438 77.9886 15.6331C77.3497 18.4508 76.7599 21.252 76.6125 22.0547L76.4159 22.2186C75.2364 22.2186 73.0904 22.2186 71.9601 22.2513L71.8454 22.0547C72.0911 21.1046 72.6154 18.8931 73.2379 16.1573C73.7129 14.0768 74.1716 11.8653 74.3682 11.0462C73.8931 11.079 72.9266 11.0626 72.1075 11.0626Z" fill="black"/>
</svg>
