<svg width="147" height="66" viewBox="0 0 147 66" fill="none" xmlns="http://www.w3.org/2000/svg">
<g clip-path="url(#clip0_303_1063)">
<rect width="223.894" height="167" transform="translate(-50 -36)" fill="#414141"/>
<path fill-rule="evenodd" clip-rule="evenodd" d="M97.3319 67.6923C94.7671 77.2645 97.8415 87.4638 105.269 94.0238L111.086 99.1613C114.667 102.323 118.931 104.612 123.545 105.848C127.991 107.04 132.647 107.223 137.173 106.384L145.859 104.775C155.626 102.965 163.482 95.7031 166.053 86.1092C168.588 76.6457 165.537 66.5629 158.18 60.0929L151.271 54.0165C147.789 50.9544 143.647 48.737 139.169 47.5369C134.523 46.292 129.646 46.1772 124.946 47.2022L116.991 48.9373C107.446 51.0191 99.8606 58.2553 97.3319 67.6923ZM137.129 84.2535C138.194 80.2796 135.836 76.1951 131.862 75.1303C127.888 74.0655 123.804 76.4237 122.739 80.3975C121.674 84.3714 124.032 88.4559 128.006 89.5207C131.98 90.5855 136.065 88.2273 137.129 84.2535Z" fill="#008ECB"/>
<path d="M132.012 -27.3379L156.989 -3.5807L103.712 56.1514L78.7341 32.3942L132.012 -27.3379Z" fill="#DBBB1E"/>
<path fill-rule="evenodd" clip-rule="evenodd" d="M-4.94363 70.916L-16.1137 70.7602C-36.5552 70.4751 -46.4476 45.6176 -31.7916 31.3649L9.3745 -8.66833C25.5477 -24.3964 51.694 -9.79746 48.0504 11.4018L61.8228 3.43384L93.5586 58.2884C101.275 71.6262 93.9137 88.6278 78.9072 92.127L20.5825 105.727C3.55676 109.697 -11.4775 93.9305 -6.70288 77.1127L-4.94363 70.916Z" fill="#F47FCC"/>
</g>
<defs>
<clipPath id="clip0_303_1063">
<rect width="147" height="66" fill="white"/>
</clipPath>
</defs>
</svg>
