<svg width="25" height="24" viewBox="0 0 25 24" fill="none" xmlns="http://www.w3.org/2000/svg">
<path d="M19.4099 12.3594C19.4099 12.5573 19.3318 12.7318 19.1755 12.8828L13.9802 18.0625C13.8292 18.2083 13.6599 18.2812 13.4724 18.2812C13.2797 18.2812 13.1182 18.2161 12.988 18.0859C12.8578 17.9609 12.7927 17.8021 12.7927 17.6094C12.7927 17.5156 12.8083 17.4271 12.8396 17.3438C12.8708 17.2552 12.9177 17.1797 12.9802 17.1172L14.7302 15.3359L17.8318 12.5156L17.988 12.8984L15.4724 13.0547H5.5896C5.38647 13.0547 5.21981 12.9896 5.0896 12.8594C4.9646 12.7292 4.9021 12.5625 4.9021 12.3594C4.9021 12.1562 4.9646 11.9896 5.0896 11.8594C5.21981 11.7292 5.38647 11.6641 5.5896 11.6641H15.4724L17.988 11.8203L17.8318 12.2109L14.7302 9.38281L12.9802 7.60156C12.9177 7.53906 12.8708 7.46615 12.8396 7.38281C12.8083 7.29427 12.7927 7.20312 12.7927 7.10938C12.7927 6.91667 12.8578 6.75781 12.988 6.63281C13.1182 6.5026 13.2797 6.4375 13.4724 6.4375C13.5662 6.4375 13.6547 6.45573 13.738 6.49219C13.8266 6.52865 13.9125 6.58854 13.9958 6.67188L19.1755 11.8359C19.3318 11.987 19.4099 12.1615 19.4099 12.3594Z" fill="#555555"/>
</svg>
