<svg width="157" height="100" viewBox="0 0 157 100" fill="none" xmlns="http://www.w3.org/2000/svg">
<mask id="mask0_5001_6333" style="mask-type:luminance" maskUnits="userSpaceOnUse" x="34" y="37" width="89" height="26">
<path d="M122.644 37.5H34.8535V62.5H122.644V37.5Z" fill="white"/>
</mask>
<g mask="url(#mask0_5001_6333)">
<path d="M118.553 59.2688C120.276 59.2688 121.496 58.9622 122.405 58.3018V55.3065C121.472 55.9433 120.348 56.3443 118.769 56.3443C116.114 56.3443 115.013 54.316 115.013 51.1084C115.013 47.7358 116.353 46.0141 118.793 46.0141C120.228 46.0141 121.639 46.5094 122.381 46.9811V43.8679C121.592 43.4434 120.228 43.1367 118.362 43.1367C113.602 43.1367 111.138 46.5094 111.138 51.2264C111.162 56.3914 113.578 59.2688 118.553 59.2688ZM95.2785 57.9009V54.9056C94.1302 55.6839 92.1686 56.3679 90.3744 56.3679C87.6476 56.3679 86.6192 55.0943 86.4517 52.4999H95.4459V50.566C95.4459 45.165 93.0296 43.1367 89.3221 43.1367C84.7767 43.1367 82.6238 46.5565 82.6238 51.2499C82.6238 56.6509 85.3273 59.2688 90.0633 59.2688C92.4319 59.2688 94.1779 58.632 95.2785 57.9009ZM61.1429 43.4197V49.5518H56.1672V43.4197H52.4355V58.9622H56.1672V52.4764H61.1429V58.9622H64.8746V43.4197H61.1429ZM81.6912 56.0377H80.0407V43.4197H69.1804V44.7405C69.1804 48.5376 68.9411 53.4433 67.6255 56.0377H66.4294V62.4999H69.8741V58.9622H78.2226V62.4999H81.6674V56.0377H81.6912ZM107.167 58.9622H111.401L105.421 50.5896L110.684 43.4197H106.928L101.665 50.5896V43.4197H97.9337V58.9622H101.665V51.3207L107.167 58.9622ZM89.2261 46.0141C91.068 46.0141 91.6424 47.5235 91.6424 49.4811V49.7877H86.4517C86.5471 47.3113 87.4564 46.0141 89.2261 46.0141ZM76.3087 56.0377H71.0462C72.0749 53.7028 72.3619 49.4575 72.3619 46.7688V46.2971H76.3087V56.0377Z" fill="#BEBEBE"/>
<path d="M49.3258 58.9623H45.5224V40.4009H43.824C40.7142 40.4009 39.0876 41.934 39.0876 44.2217C39.0876 46.816 40.2118 48.0189 42.5322 49.5519L44.4459 50.8255L38.944 58.9623H34.8535L39.8052 51.6981C36.9586 49.6934 35.3558 47.7359 35.3558 44.434C35.3558 40.3066 38.2743 37.5 43.8 37.5H49.3019L49.3258 58.9623Z" fill="#BEBEBE"/>
</g>
</svg>
