<svg width="157" height="100" viewBox="0 0 157 100" fill="none" xmlns="http://www.w3.org/2000/svg">
<path d="M108.732 41.7646C107.33 41.7646 106.12 42.3378 105.005 44.0262L100.546 50.7466L100.96 45.5229C101.088 43.5482 99.8772 41.7646 97.6472 41.7646C95.6086 41.7646 94.3347 43.1344 94.2071 44.8862L93.5063 54.5055C93.347 56.8948 94.5891 58.2638 96.5962 58.2638C98.6033 58.2638 99.8129 56.8305 100.705 55.5242L105.004 48.9948L104.622 54.5049C104.463 56.7346 105.642 58.263 107.839 58.263C109.878 58.263 111.215 57.0526 111.343 55.2373L112.075 45.5229C112.203 43.6117 111.279 41.7646 108.731 41.7646H108.732ZM91.7545 53.6455C91.7545 51.4156 90.0662 50.0143 87.8688 49.6962C89.9391 49.2824 91.7228 47.9444 91.7228 45.747C91.7228 43.2944 89.8434 41.8929 86.3396 41.8929H79.3005C76.0521 41.8929 74.8415 43.1985 74.5864 46.7981L74.1726 52.8179C73.8856 56.8311 75.0326 58.1052 79.0143 58.1052H85.7665C89.6523 58.1052 91.7545 56.5126 91.7545 53.6461V53.6455ZM85.0975 53.1676C85.0975 54.6008 84.0147 55.2379 82.1993 55.2379H80.3199C80.3199 55.2379 80.6386 53.2633 80.8295 51.3204H82.5498C84.047 51.3204 85.0975 51.9254 85.0975 53.1682V53.1676ZM85.1609 46.6064C85.1609 47.8168 84.2056 48.5175 82.4856 48.5175H81.0523C81.0523 48.5175 81.18 46.3518 81.1158 44.791H82.6767C84.2373 44.791 85.1609 45.4601 85.1609 46.6064Z" fill="#BEBEBE"/>
<path d="M69.2663 41.7646C67.833 41.7646 66.6861 42.3378 65.5397 44.0262L61.0808 50.7466L61.4947 45.5229C61.6222 43.5482 60.3801 41.7646 58.182 41.7646C56.1433 41.7646 54.8694 43.1344 54.7418 44.8862L54.0411 54.5055C53.8817 56.8946 55.1239 58.2638 57.0985 58.2638C59.0732 58.2638 60.3153 56.8306 61.2395 55.5243L65.5391 48.9948L65.1571 54.5049C64.966 56.7347 66.1764 58.2631 68.3738 58.2631C70.4125 58.2631 71.75 57.0527 71.8774 55.2374L72.5782 45.5229C72.7376 43.6117 71.814 41.7646 69.2657 41.7646H69.2663Z" fill="url(#paint0_linear_3925_7275)"/>
<path d="M61.4927 45.5228L61.0789 50.7466L61.2375 55.5243C60.3134 56.8306 59.0712 58.2636 57.0966 58.2636C55.122 58.2636 53.8798 56.8946 54.0391 54.5055L54.7399 44.8862C54.8674 43.1344 56.1413 41.7646 58.1801 41.7646C60.3782 41.7646 61.6204 43.5482 61.4927 45.5228Z" fill="url(#paint1_linear_3925_7275)"/>
<path d="M61.5019 45.2508C61.5019 43.4289 60.3238 41.7637 58.1574 41.7637C55.9911 41.7637 54.7344 43.3879 54.7344 45.1398C54.7344 47.0192 56.1444 48.4842 58.1191 48.4842C60.0937 48.4842 61.5019 47.1296 61.5019 45.2508Z" fill="#BEBEBE"/>
<path d="M79.1037 59.875H77.5086L77.0618 60.9916C75.7218 64.342 73.0417 65.9689 68.2555 65.9689C66.4053 65.9689 64.0438 66.0006 61.3638 65.7455C53.9618 65.0434 50.6439 63.991 48.7929 61.6937C46.9101 59.3005 46.5274 55.3447 47.357 48.3889C47.7715 44.7834 48.4736 38.2751 51.4411 35.9455C53.068 34.669 55.2701 33.9993 58.8432 33.9993C60.5659 33.9993 62.9272 34.1269 65.1604 34.3504C69.9141 34.829 76.0403 35.531 78.3053 39.2958C78.5604 39.7427 78.688 40.1255 78.688 40.1255H80.3149C80.1872 39.8062 80.0915 39.4875 79.9004 39.1365C78.688 36.7434 76.6459 35.3717 73.8384 34.4145C71.828 33.7124 69.3397 33.2338 65.7343 32.8828C63.7239 32.691 60.9804 32.5 58.8743 32.5C55.5239 32.5 52.4929 33.0421 50.4191 34.829C47.675 37.2538 46.6226 41.4972 45.8247 48.1655C45.5377 50.4945 45.4419 52.6007 45.4102 54.3869C45.4102 57.8006 45.9522 60.4806 47.5481 62.491C48.8881 64.1821 50.8025 65.171 53.0998 65.9047C57.2791 67.1812 63.3736 67.5 67.6488 67.5C70.8714 67.5 73.2963 67.0213 74.9548 65.9681C76.4542 65.0109 77.6031 63.6711 78.4327 61.8206C78.8155 61.0227 79.0072 60.1295 79.1031 59.8744L79.1037 59.875Z" fill="#BEBEBE"/>
<defs>
<linearGradient id="paint0_linear_3925_7275" x1="62.5789" y1="49.9326" x2="55.6889" y2="49.0581" gradientUnits="userSpaceOnUse">
<stop offset="0.15" stop-color="#BEBEBE"/>
<stop offset="0.62" stop-color="#BEBEBE" stop-opacity="0.6"/>
<stop offset="1" stop-color="#BEBEBE" stop-opacity="0"/>
</linearGradient>
<linearGradient id="paint1_linear_3925_7275" x1="56.229" y1="58.1389" x2="58.0982" y2="47.9442" gradientUnits="userSpaceOnUse">
<stop offset="0.15" stop-color="#BEBEBE"/>
<stop offset="0.62" stop-color="#BEBEBE" stop-opacity="0.6"/>
<stop offset="1" stop-color="#BEBEBE" stop-opacity="0"/>
</linearGradient>
</defs>
</svg>
