<svg width="157" height="100" viewBox="0 0 157 100" fill="none" xmlns="http://www.w3.org/2000/svg">
<g clip-path="url(#clip0_3925_7233)">
<g clip-path="url(#clip1_3925_7233)">
<path d="M52.1445 43.9096C50.3656 37.2083 44.7227 32.5 33.012 32.5H18.873L20.7924 45.0435C22.2362 56.3619 26.7151 60.003 34.6412 61.3439C34.6781 61.3494 34.9291 61.3839 34.9325 61.1002C34.9337 60.9978 34.8669 60.9099 34.7748 60.8721C29.4174 58.6921 28.806 51.5423 27.6615 44.3681L26.7761 38.6505H34.8473C42.2887 38.6505 48.0341 38.537 51.6713 44.0887C51.7254 44.1666 51.8095 44.2245 51.9096 44.2245C52.0501 44.2245 52.1549 44.1143 52.1549 43.9786C52.1549 43.9541 52.1514 43.9307 52.1445 43.9096Z" fill="#BEBEBE"/>
<path d="M74.8532 61.9788C83.9123 61.9788 83.0764 53.3145 83.0764 53.3145L74.6299 53.3156V54.9559H81.0695C80.7817 58.1674 78.2717 60.2005 74.973 60.2005C71.0525 60.2005 68.3986 57.3584 68.3986 53.6851C68.3986 49.896 71.1953 47.1228 74.973 47.1228C77.6269 47.1228 79.8019 48.5094 80.8059 50.6349H82.9336C81.7869 47.3999 78.7748 45.2979 74.9972 45.2979C70.0957 45.2979 66.3906 48.8332 66.3906 53.6383C66.3906 58.4434 70.0727 61.9788 74.8532 61.9788Z" fill="#BEBEBE"/>
<path d="M47.1946 61.4291L43.8556 56.0654L40.5856 61.4291H36.6709L41.7002 53.3501L36.5742 45.8498H40.6639L43.9477 50.8574L47.0794 45.8498H50.9941L45.9511 53.5949L51.1323 61.4291H47.1946Z" fill="#BEBEBE"/>
<path d="M63.858 56.1332C63.858 59.5606 61.1868 61.6972 57.6866 61.6972C54.6009 61.6972 52.0034 60.0503 51.7501 56.4671H55.0891C55.3193 58.025 56.6089 58.6927 58.0136 58.6927C59.7637 58.6927 60.519 57.5576 60.519 56.0887C60.519 54.553 59.3446 53.596 57.7096 53.596C56.351 53.596 55.4529 54.2192 55.0384 54.8869H51.8468L52.9498 45.8509H63.4469L63.0969 48.8777H55.5876L55.2894 51.8678C55.2894 51.8678 56.0781 50.9698 58.4684 50.9698C61.348 50.9698 63.858 52.8382 63.858 56.1332Z" fill="#BEBEBE"/>
<path d="M93.2597 48.8083V50.7724C93.0444 50.7491 92.7577 50.7257 92.4227 50.7257C89.6732 50.7257 87.7608 52.4583 87.7608 55.7166V61.7235H85.7769V49.0153H87.7608V51.8574C88.5494 49.9623 90.1268 48.7616 92.4457 48.7616C92.7577 48.7627 93.0686 48.785 93.2597 48.8083Z" fill="#BEBEBE"/>
<path fill-rule="evenodd" clip-rule="evenodd" d="M100.988 61.9787C104.79 61.9787 107.778 59.1834 107.778 55.3709C107.778 51.5584 104.742 48.7631 100.988 48.7631C97.2589 48.7631 94.2227 51.5584 94.2227 55.3709C94.2227 59.16 97.2106 61.9787 100.988 61.9787ZM100.988 60.1537C98.3343 60.1537 96.2308 58.1663 96.2308 55.3709C96.2308 52.5522 98.3585 50.5881 100.988 50.5881C103.641 50.5881 105.769 52.5755 105.769 55.3709C105.769 58.1663 103.665 60.1537 100.988 60.1537Z" fill="#BEBEBE"/>
<path d="M121.501 49.0183V61.7254H119.517V59.2072C118.633 60.8708 117.103 61.9803 114.831 61.9803C111.915 61.9803 110.169 60.1786 110.169 57.0817V49.0183H112.153V56.7123C112.153 58.9768 113.253 60.1553 115.404 60.1553C118.01 60.1553 119.516 58.3536 119.516 55.5338V49.0183H121.501Z" fill="#BEBEBE"/>
<path fill-rule="evenodd" clip-rule="evenodd" d="M131.454 61.9784C135.041 61.9784 137.622 59.2064 137.622 55.3705C137.622 51.5113 135.041 48.7627 131.478 48.7616C129.207 48.7616 127.414 49.8944 126.41 51.6271V49.0164H124.426V67.5001H126.41V59.1596C127.414 60.8689 129.184 61.9784 131.454 61.9784ZM131.096 50.5877C133.75 50.5877 135.614 52.5974 135.614 55.3705C135.614 58.1659 133.75 60.1534 131.096 60.1534C128.419 60.1534 126.387 58.1659 126.387 55.3705C126.387 52.5752 128.419 50.5877 131.096 50.5877Z" fill="#BEBEBE"/>
</g>
</g>
<defs>
<clipPath id="clip0_3925_7233">
<rect width="120" height="35" fill="white" transform="translate(18.248 32.5)"/>
</clipPath>
<clipPath id="clip1_3925_7233">
<rect width="118.749" height="35" fill="white" transform="translate(18.873 32.5)"/>
</clipPath>
</defs>
</svg>
