<svg width="157" height="100" viewBox="0 0 157 100" fill="none" xmlns="http://www.w3.org/2000/svg">
<g clip-path="url(#clip0_3925_7313)">
<mask id="mask0_3925_7313" style="mask-type:luminance" maskUnits="userSpaceOnUse" x="20" y="35" width="117" height="30">
<path d="M136.748 35H20.748V65H136.748V35Z" fill="white"/>
</mask>
<g mask="url(#mask0_3925_7313)">
<path d="M136.138 62.5049H67.041V64.6032H136.138V62.5049Z" fill="url(#paint0_linear_3925_7313)"/>
<path d="M109.7 39.8963C109.186 40.539 108.976 41.4464 108.995 42.5239H104.865C104.903 41.4086 105.093 40.3689 105.436 39.3481C105.797 38.4785 106.368 37.6657 107.13 36.9284C107.701 36.3991 108.405 36.0022 109.186 35.7186C109.985 35.4351 110.975 35.3027 112.117 35.3027C114.268 35.3027 116.019 35.8698 117.313 36.9662C118.646 38.0627 119.294 39.5371 119.294 41.3897C119.294 42.7129 118.894 43.8094 118.113 44.7167C117.599 45.2838 117.104 45.6619 116.571 45.8698C116.971 45.8698 117.561 46.2101 118.284 46.9095C119.408 47.9493 119.979 49.3481 119.979 51.1628C119.979 53.0343 119.331 54.7167 117.998 56.1534C116.667 57.5901 114.725 58.3084 112.155 58.3084C108.957 58.3084 106.768 57.2687 105.531 55.2271C104.884 54.1307 104.522 52.7129 104.465 50.9171H108.805C108.805 51.8055 108.938 52.5428 109.224 53.1288C109.757 54.1875 110.746 54.7545 112.155 54.7545C113.031 54.7545 113.792 54.4521 114.42 53.8661C115.067 53.2801 115.372 52.4294 115.372 51.3141C115.372 49.8585 114.782 48.8755 113.564 48.3651C112.878 48.0815 111.812 47.9493 110.347 47.9493V44.8113C111.793 44.7924 112.783 44.6411 113.336 44.3954C114.325 43.9795 114.801 43.1099 114.801 41.7867C114.801 40.9549 114.553 40.2366 114.04 39.7073C113.526 39.178 112.821 38.8944 111.927 38.8944C110.937 38.9133 110.175 39.2536 109.7 39.8963Z" fill="#BEBEBE"/>
<path d="M128.412 58.3462C125.557 58.3462 123.558 57.3632 122.397 55.3784C121.235 53.3935 120.684 50.5579 120.684 46.8528C120.684 43.1855 121.254 40.3122 122.397 38.3273C123.52 36.3046 125.537 35.3027 128.412 35.3027C131.267 35.3027 133.304 36.3046 134.446 38.3084C135.607 40.2933 136.159 43.1666 136.159 46.8339C136.159 50.5012 135.588 53.3745 134.446 55.3595C133.265 57.3443 131.267 58.3462 128.412 58.3462ZM130.981 52.7129C131.381 51.3708 131.571 49.4048 131.571 46.8339C131.571 44.1496 131.381 42.1458 130.944 40.8604C130.524 39.5749 129.668 38.9322 128.373 38.9322C127.079 38.9322 126.204 39.5749 125.785 40.8604C125.367 42.1458 125.137 44.1496 125.137 46.8339C125.137 49.3859 125.328 51.3519 125.785 52.7129C126.204 54.0551 127.079 54.7545 128.373 54.7545C129.706 54.7545 130.582 54.0929 130.981 52.7129Z" fill="#BEBEBE"/>
<path d="M101.324 50.6907V49.0461C101.324 43.2805 98.1836 40.7285 93.4439 40.7285C93.4249 40.7285 93.3868 40.7285 93.3678 40.7285C86.1154 40.7852 85.373 47.1746 85.373 49.1595C85.373 55.8325 88.8184 58.1955 93.3678 58.2899C93.501 58.2899 93.6153 58.3088 93.7675 58.3088C96.6419 58.3088 100.03 56.9289 101.172 52.9214H96.6228C96.2802 54.1312 95.0048 54.7739 93.7675 54.7739C93.6343 54.7739 93.482 54.7739 93.3678 54.7739C90.1699 54.547 89.9224 51.9195 89.9224 50.6718H93.3678H101.324V50.6907ZM93.3487 44.3391C94.7763 44.3391 96.5276 45.1708 96.775 47.8363H93.3297H89.9033C90.1318 45.6435 91.2739 44.3391 93.3487 44.3391Z" fill="#BEBEBE"/>
<path d="M84.402 35.4355H79.9668V57.9687H84.402V35.4355Z" fill="#BEBEBE"/>
<path d="M71.9517 40.7471C71.4758 40.7471 71.0571 40.766 70.6573 40.8227C68.5635 41.2197 67.6307 42.5051 66.9264 43.5637H66.8693V41.144H62.6055V64.5845H67.0407V55.6998L67.1168 55.7188C67.5736 56.5127 68.4492 57.817 70.6383 58.1951C70.9999 58.2518 71.3997 58.3085 71.8565 58.3085C76.8438 58.3085 78.9757 53.9418 78.9757 49.3671C78.9947 43.6015 75.6826 40.7471 71.9517 40.7471ZM70.6573 54.6979C70.6383 54.6979 70.5812 54.6979 70.5432 54.6979C67.6878 54.6979 66.8693 51.6167 66.8693 49.6318C66.8693 47.0041 67.8592 44.5088 70.6573 44.5088C73.6839 44.5088 74.4453 47.1932 74.4453 49.8964C74.4453 52.3538 73.3603 54.6223 70.6573 54.6979Z" fill="#BEBEBE"/>
<path d="M37.3281 41.1627V57.8924H41.7633V47.6088C41.7633 45.813 42.4486 44.4141 44.5043 44.4141C46.7314 44.4141 47.1502 46.4368 47.1502 47.8356V57.8734H51.5473V47.8734C51.5473 45.8885 52.3658 44.433 54.5929 44.433C55.8683 44.433 56.9724 45.2647 56.9724 47.7411V57.8924H61.3694V46.2855C61.3694 42.6371 58.8568 40.709 55.5257 40.709C52.8417 40.709 51.6044 42.5615 51.0715 43.3366C49.8913 41.5785 48.8063 40.709 46.3507 40.709C43.4384 40.7279 42.2201 42.5048 41.6682 43.6012H41.592V41.1627H37.3281Z" fill="#BEBEBE"/>
<path d="M41.5539 35.3027H37.3281V39.367H41.5539V35.3027Z" fill="#BEBEBE"/>
<path d="M35.6526 46.4368C35.348 41.692 31.3887 40.917 28.1146 40.917C22.899 40.917 21.3381 44.055 21.3381 46.4935C21.3381 52.7506 31.7503 50.6334 31.7503 53.4123C31.7503 54.0361 31.2174 55.1703 28.9331 55.1703C26.1731 55.1703 25.2974 54.1117 25.2974 52.6939H20.748C20.748 57.1552 25.0119 58.4595 28.8189 58.4595C31.4458 58.4595 36.1665 57.59 36.1665 52.7128C36.1665 46.5503 25.6591 48.4784 25.6591 45.8508C25.6591 45.1136 25.9637 44.2063 28.3621 44.2063C30.7986 44.2063 31.1603 45.3593 31.3315 46.3991H35.6526V46.4368Z" fill="#BEBEBE"/>
</g>
</g>
<defs>
<linearGradient id="paint0_linear_3925_7313" x1="59.5759" y1="63.546" x2="128.673" y2="63.546" gradientUnits="userSpaceOnUse">
<stop offset="0.1152" stop-color="#BEBEBE" stop-opacity="0"/>
<stop offset="0.5169" stop-color="#BEBEBE"/>
<stop offset="1" stop-color="#BEBEBE"/>
</linearGradient>
<clipPath id="clip0_3925_7313">
<rect width="116" height="30" fill="white" transform="translate(20.748 35)"/>
</clipPath>
</defs>
</svg>
