<svg width="157" height="100" viewBox="0 0 157 100" fill="none" xmlns="http://www.w3.org/2000/svg">
<path fill-rule="evenodd" clip-rule="evenodd" d="M54.4258 32.584H19.4062V50.0999C19.4062 54.5915 21.8092 58.7493 25.7246 60.9868L36.916 67.4154L48.1075 60.9868C52.0228 58.7326 54.4258 54.5915 54.4258 50.0999V32.584ZM29.0013 47.2445V41.8011H44.7971V47.2445C44.0577 46.4096 42.6966 45.8419 41.1338 45.8419H39.4366V52.1703C39.4366 53.8568 39.8903 55.3262 40.5793 56.1444H33.2191C33.9081 55.3262 34.3618 53.8568 34.3618 52.1703V45.8419H32.6646C31.1186 45.8419 29.7575 46.4096 29.0013 47.2445Z" fill="#BEBEBE"/>
<path d="M68.8166 48.0745H75.0545C76.1749 48.0745 77.2045 48.1647 77.9918 48.4656C79.6573 49.0975 80.7171 50.5117 80.7171 52.5578C80.7171 54.5739 79.5967 56.1084 77.9312 56.7403C77.1439 57.0412 76.0841 57.1616 74.6609 57.1616H64.4258V42.8389H79.5361V46.1487H68.8166V48.0745ZM68.8166 53.5508H74.8123C75.2362 53.5508 75.5693 53.5207 75.8115 53.4304C76.3263 53.2499 76.5383 52.7986 76.5383 52.3773C76.5383 51.956 76.3566 51.6251 75.9932 51.4445C75.6904 51.2941 75.2968 51.264 74.8123 51.264H68.8166V53.5508Z" fill="#BEBEBE"/>
<path d="M93.6037 55.0854H86.9418L86.1242 57.1616H81.1581L87.0629 42.8389H93.4826L99.3874 57.1616H94.4516L93.6037 55.0854ZM90.1213 46.1487L88.0319 51.926H92.5438L90.4544 46.1487H90.1213Z" fill="#BEBEBE"/>
<path d="M112.689 51.8357H105.633V57.1616H101.242V42.8389H105.633V48.0745H112.689V42.8389H117.079V57.1616H112.689V51.8357Z" fill="#BEBEBE"/>
<path d="M126.007 51.7454H124.796V57.1616H120.405V42.8389H124.796V48.2249H126.007L131.306 42.8389H136.817L129.792 49.6993L137.09 57.1616H131.245L126.007 51.7454Z" fill="#BEBEBE"/>
</svg>
