<svg width="157" height="100" viewBox="0 0 157 100" fill="none" xmlns="http://www.w3.org/2000/svg">
<g clip-path="url(#clip0_3925_7266)">
<path fill-rule="evenodd" clip-rule="evenodd" d="M46.4863 40.4123C45.1029 40.4123 43.9816 39.2969 43.9816 37.9211C43.9816 36.5449 45.1029 35.4297 46.4863 35.4297C47.8698 35.4297 48.9913 36.5449 48.9913 37.9211C48.9913 39.2969 47.8698 40.4123 46.4863 40.4123ZM46.4863 32.5C43.4692 32.5 41.0234 34.9325 41.0234 37.9336C41.0234 38.9569 41.3085 39.9145 41.8036 40.7316C41.9047 40.8987 42.0145 41.0599 42.1326 41.2145L42.4954 41.7149L46.4863 46.5016L50.8407 41.2139C51.5361 40.3022 51.9493 39.1658 51.9493 37.9336C51.9493 34.9325 49.5035 32.5 46.4863 32.5Z" fill="#BEBEBE"/>
<path fill-rule="evenodd" clip-rule="evenodd" d="M48.5715 57.7442V48.626H44.5247V52.9087L40.4803 48.0762L29.2188 61.5322L32.9649 64.6333L40.4803 55.6535L47.9954 64.6333L51.7416 61.5322L48.5715 57.7442Z" fill="#BEBEBE"/>
<path fill-rule="evenodd" clip-rule="evenodd" d="M73.3916 48.6143H69.8027V61.0426H62.7098V48.6143H59.1211V64.3436H72.3358V67.5002H75.587V61.0426H73.3916V48.6143Z" fill="#BEBEBE"/>
<path fill-rule="evenodd" clip-rule="evenodd" d="M81.6863 59.2039V48.6143H78.0977V64.3438H81.6863L89.2017 53.754V64.3438H92.7904V48.6143H89.2017L81.6863 59.2039Z" fill="#BEBEBE"/>
<path fill-rule="evenodd" clip-rule="evenodd" d="M123.711 48.6143V54.795H116.386V48.6143H112.797V64.3436H116.386V58.1183H123.711V64.3436H127.278V48.6143H123.711Z" fill="#BEBEBE"/>
<path fill-rule="evenodd" clip-rule="evenodd" d="M105.752 57.7023C105.752 58.937 105.401 59.9031 104.709 60.5741C104.008 61.2529 102.99 61.5973 101.683 61.5973C100.048 61.5973 99.1481 60.8648 99.1481 59.5346C99.1481 58.1472 100.325 57.319 102.297 57.319H105.752V57.7023ZM102.758 48.3145C100.882 48.3145 99.2673 48.8136 98.0859 49.7578C96.9816 50.6405 96.3273 51.8738 96.2389 53.2328H99.776C99.938 52.5031 100.722 51.3646 102.758 51.3646C104.633 51.3646 105.752 52.4783 105.752 54.3435V54.4216H102.143C100.006 54.4216 98.3551 54.9022 97.2366 55.8501C96.1647 56.7581 95.6211 58.0491 95.6211 59.6872C95.6211 61.0993 96.18 62.3664 97.1953 63.2549C98.2362 64.166 99.6819 64.6474 101.376 64.6474C104.03 64.6474 105.473 63.3594 105.97 62.8078L106.217 64.1554L106.251 64.3419H106.442H109.051H109.28V64.1148V54.3435C109.28 50.6247 106.781 48.3145 102.758 48.3145Z" fill="#BEBEBE"/>
</g>
<defs>
<clipPath id="clip0_3925_7266">
<rect width="100" height="35" fill="white" transform="translate(28.248 32.5)"/>
</clipPath>
</defs>
</svg>
