<svg width="157" height="100" viewBox="0 0 157 100" fill="none" xmlns="http://www.w3.org/2000/svg">
<path d="M86.3904 35L70.2344 37.1159V41.909L86.3904 40.4636V35Z" fill="#BEBEBE"/>
<path d="M37.0277 52.4557C37.0277 55.3645 37.8934 56.3711 40.6713 56.3711C43.4492 56.3711 44.3004 55.3596 44.3004 52.4557C44.3004 49.5518 43.4622 48.5403 40.6713 48.5403C37.88 48.5403 37.0277 49.5322 37.0277 52.4557ZM32.1465 52.4133C32.1465 47.0835 35.1007 44.6445 40.6713 44.6445C46.2419 44.6445 49.2091 47.0835 49.2091 52.4133C49.2091 57.7431 46.2745 60.2669 40.6713 60.2669C35.0681 60.2669 32.1465 57.7431 32.1465 52.4133Z" fill="#BEBEBE"/>
<path d="M83.3329 45.9845L70.2354 37.1211V41.9028L74.3193 44.6761L75.1228 45.146C73.6556 45.1639 72.9528 45.4625 72.2471 45.8899C70.2303 47.1086 69.1836 49.2522 69.1836 52.4156C69.1836 57.7454 72.1182 60.2692 77.7084 60.2692C83.2989 60.2692 86.248 57.7454 86.248 52.4156C86.248 49.3306 85.2502 47.2212 83.3329 45.9845ZM77.7084 56.3717C74.937 56.3717 74.0648 55.3602 74.0648 52.4563C74.0648 49.5524 74.9305 48.541 77.7084 48.541C80.4866 48.541 81.3375 49.5329 81.3375 52.4563C81.3375 55.3798 80.5011 56.3717 77.7084 56.3717Z" fill="#BEBEBE"/>
<path d="M23.7418 44.625C21.104 44.625 18.9602 46.2564 18.4286 46.9318V44.9741H13.748V64.9997H18.3993V57.877C18.9454 58.567 21.0744 60.1691 23.727 60.1691C28.1288 60.1691 30.5529 57.7742 30.5529 52.3856C30.5529 46.9971 28.1321 44.625 23.7418 44.625ZM22.0755 56.2896C19.3041 56.2896 18.4319 55.2798 18.4319 52.3742C18.4319 49.4687 19.2976 48.4588 22.0755 48.4588C24.8534 48.4588 25.7029 49.454 25.7029 52.3742C25.7029 55.2944 24.8665 56.2831 22.0755 56.2831V56.2896Z" fill="#BEBEBE"/>
<path d="M118.252 44.9805V50.418H112.077V44.9805H107.396V59.6958H112.077V54.1832H118.252V59.6958H122.935V44.9805H118.252Z" fill="#BEBEBE"/>
<path d="M87.8574 52.3856C87.8574 57.7693 90.2786 60.1691 94.6837 60.1691C97.3345 60.1691 99.4635 58.567 100.01 57.8769V59.6976H104.663V44.9644H99.982V46.922C99.4472 46.2564 97.3034 44.625 94.6674 44.625C90.2768 44.625 87.8574 47.0118 87.8574 52.3856ZM92.706 52.3644C92.706 49.4409 93.5424 48.449 96.3351 48.449C99.1278 48.449 99.977 49.4442 99.977 52.3644C99.977 55.2847 99.1115 56.2798 96.3351 56.2798C93.5587 56.2798 92.7042 55.2732 92.7042 52.3644H92.706Z" fill="#BEBEBE"/>
<path d="M62.7906 54.2588C62.4253 55.7972 61.4473 56.3714 59.3277 56.3714C56.5563 56.3714 55.6856 55.3599 55.6856 52.456C55.6856 49.5521 56.5563 48.5406 59.3277 48.5406C61.4473 48.5406 62.4253 49.1133 62.7921 50.6615L67.6733 50.2912C66.9444 46.441 64.0865 44.6514 59.3277 44.6514C53.7571 44.6514 50.8047 47.0903 50.8047 52.4201C50.8047 57.75 53.739 60.2738 59.3277 60.2738C64.0833 60.2738 66.9118 58.4466 67.6585 54.634L62.7906 54.2588Z" fill="#BEBEBE"/>
<path d="M142.747 59.6942L135.339 51.9678L142.349 44.9805H136.558L130.277 51.3723V44.9805H125.68V59.6942H130.277V54.5487V53.2745V52.9189L136.73 59.6942H142.747Z" fill="#BEBEBE"/>
</svg>
