<svg width="159" height="28" viewBox="0 0 159 28" fill="none" xmlns="http://www.w3.org/2000/svg">
<path d="M9.74297 23.7999H13.2002V3.96289H8.17153C3.11432 3.96289 0.457154 6.56027 0.457154 10.385C0.457154 13.4391 1.9143 15.2372 4.51434 17.0925L0 23.7999H3.7429L8.77154 16.2933L7.02866 15.1231C4.91434 13.6959 3.88576 12.5828 3.88576 10.1852C3.88576 8.07304 5.3715 6.6459 8.2001 6.6459H9.74297V23.7999ZM55.1436 22.8295V20.0608C54.0863 20.7745 52.315 21.4025 50.6578 21.4025C48.1721 21.4025 47.2291 20.2321 47.0863 17.8346H55.2864V16.0364C55.2864 11.0415 53.0864 9.15766 49.6863 9.15766C45.5434 9.15766 43.572 12.3259 43.572 16.6644C43.572 21.6593 46.0292 24.0854 50.3721 24.0854C52.5434 24.0854 54.1435 23.5145 55.1436 22.8295ZM76.4009 24.0854C77.9723 24.0854 79.0868 23.7999 79.9153 23.2006V20.432C79.0581 21.0313 78.0295 21.4025 76.6008 21.4025C74.1723 21.4025 73.1723 19.5186 73.1723 16.5502C73.1723 13.4391 74.4008 11.8407 76.6295 11.8407C77.9439 11.8407 79.2295 12.2973 79.9153 12.7255V9.84268C79.201 9.44307 77.9439 9.15766 76.2582 9.15766C71.9151 9.15766 69.658 12.2688 69.658 16.6358C69.658 21.4309 71.858 24.0854 76.4009 24.0854ZM24.0003 9.44307V15.1231H19.4574V9.44307H16.0573V23.7999H19.4574V17.8061H24.0003V23.7999H27.4004V9.44307H24.0003ZM42.7435 21.117H41.229V9.44307H31.3148V10.6704C31.3148 14.1811 31.0862 18.7194 29.8861 21.117H28.8288V27.0824H31.9718V23.7999H39.6005V27.0824H42.7435V21.117ZM66.0009 23.7999H69.8581L64.4008 16.065L69.2008 9.44307H65.7723L60.9723 16.065V9.44307H57.5722V23.7999H60.9723V16.75L66.0009 23.7999ZM49.6292 11.8407C51.3149 11.8407 51.8292 13.2392 51.8292 15.0374V15.3229H47.0863C47.1719 13.0394 48.0006 11.8407 49.6292 11.8407ZM37.8289 21.117H33.0289C33.9719 18.9478 34.229 15.0374 34.229 12.5542V12.1261H37.8289V21.117Z" fill="black"/>
<path d="M109.453 3.96289V23.7999H120.739V21.117H112.91V15.1801H119.425V12.4971H112.91V6.6459H120.596V3.96289H109.453ZM136.256 21.117H134.742V9.44307H124.828V10.6704C124.828 14.1811 124.599 18.7194 123.399 21.117H122.342V27.0824H125.485V23.7999H133.113V27.0824H136.256V21.117ZM131.342 21.117H126.542C127.485 18.9478 127.742 15.0374 127.742 12.5542V12.1261H131.342V21.117ZM148.712 14.0099C148.712 10.5277 146.941 9.21475 143.341 9.21475C141.084 9.21475 139.312 9.92831 138.283 10.5277V13.3534C139.198 12.6684 141.198 11.9263 142.941 11.9263C144.569 11.9263 145.312 12.4971 145.312 14.0384V14.8376H144.769C139.569 14.8376 137.255 16.5502 137.255 19.4615C137.255 22.373 139.026 23.9998 141.655 23.9998C143.655 23.9998 144.512 23.3432 145.169 22.6584H145.312C145.341 23.0294 145.455 23.5145 145.569 23.7999H148.884C148.769 22.6298 148.712 21.4596 148.712 20.2892V14.0099ZM145.312 20.3749C144.883 21.0029 144.084 21.5167 142.884 21.5167C141.455 21.5167 140.741 20.6604 140.741 19.376C140.741 17.6919 141.912 17.0925 144.826 17.0925H145.312V20.3749Z" fill="black"/>
<path d="M101.735 19.1386C100.146 20.5397 98.0726 21.3848 95.8105 21.3848C91.0653 21.3848 87.5096 17.7143 87.5096 13.5187C87.5096 9.57335 90.6594 6.35181 94.5645 6.35181C98.2499 6.35181 100.909 9.20566 100.909 12.2956C100.909 15.192 98.6211 17.5414 95.8105 17.5414C93.2388 17.5414 91.4237 15.5958 91.4237 13.5187C91.4237 11.6544 92.8676 10.1952 94.5657 10.1952C96.0687 10.1952 96.9961 11.2893 96.9961 12.2956C96.9961 13.169 96.3808 13.6967 95.8105 13.6967C95.6088 13.6967 95.5317 13.6541 95.4508 13.6038C95.6345 13.3677 95.7257 13.0607 95.6795 12.7407C95.5883 12.1227 95.0153 11.6957 94.4 11.7873C93.8721 11.866 93.5368 12.2246 93.3711 12.4904C93.1836 12.7884 93.0834 13.1471 93.0834 13.5187C93.0834 15.0011 94.4668 15.9597 95.8105 15.9597C97.7733 15.961 99.2492 14.2489 99.2492 12.2956C99.2492 9.90492 97.1747 7.93226 94.5657 7.93226C91.5355 7.93226 89.1706 10.4945 89.1706 13.5187C89.1706 16.9453 92.0955 19.8031 95.8118 19.8031C99.9198 19.8031 103.163 16.3867 103.163 12.2943C103.163 7.89485 99.4342 4.08887 94.5657 4.08887C89.3864 4.08887 85.2578 8.35415 85.2578 13.5187C85.2578 19.0328 89.8925 23.6477 95.8118 23.6477C98.6429 23.6477 101.24 22.5859 103.222 20.8391L101.735 19.1386Z" fill="black"/>
</svg>
