<svg width="84" height="35" viewBox="0 0 84 35" fill="none" xmlns="http://www.w3.org/2000/svg">
<g clip-path="url(#clip0_5228_76186)">
<g clip-path="url(#clip1_5228_76186)">
<path fill-rule="evenodd" clip-rule="evenodd" d="M5.6019 0L4.17052 3.89755H24.0539L25.4853 0H5.6019ZM3.44565 5.84632L2.01426 9.74387H21.8977L23.3291 5.84632H3.44565ZM1.29857 11.7017L-0.132812 15.5993H19.7506L21.182 11.7017H1.29857Z" fill="black"/>
<path fill-rule="evenodd" clip-rule="evenodd" d="M42.1392 17.084V17.166C43.0476 17.4938 43.9192 18.0766 44.3688 18.45C45.7727 19.6065 46.3966 21.1364 46.3966 23.1216C46.3966 26.3908 44.6624 28.7403 41.8089 29.487C40.9372 29.7329 40.0288 29.8148 38.3405 29.8148H29.7063V5.92867H37.3495C38.9186 5.92867 39.9921 6.01063 40.9464 6.2565C43.7174 7.00323 45.5341 8.90647 45.5341 11.9207C45.5341 13.5325 44.9561 14.8985 44.0018 15.8091C43.5797 16.2189 43.0017 16.7107 42.1392 17.084ZM34.4868 19.6065V25.8899H37.79C38.7809 25.8899 39.6893 25.808 40.3499 25.1888C41.0106 24.5695 41.3042 23.7864 41.3042 22.7482C41.3042 21.9651 41.0932 21.2184 40.6803 20.6811C39.9737 19.816 39.1112 19.6065 37.6248 19.6065H34.4868ZM34.4501 15.4722H37.1385C37.9643 15.4722 38.3772 15.4722 38.7901 15.3447C39.9095 15.0169 40.6069 14.0243 40.6069 12.6583C40.6069 11.0465 39.8636 10.3453 38.7901 10.0175C38.3313 9.88997 37.8817 9.85354 36.9733 9.85354H34.4501V15.4722ZM53.5811 29.8148V9.9355H46.6811V5.92867H65.8579L64.4908 9.9355H58.3707V29.8148H53.5811ZM67.3444 29.8148V5.92867H82.8786L81.5114 9.9355H72.0973V15.2263H75.9419C79.0432 15.2263 80.6489 15.9731 81.7683 16.9201C82.64 17.6668 84.1264 19.3151 84.1264 22.5843C84.1264 25.808 82.5941 27.5837 81.3187 28.4944C79.8323 29.5234 78.2633 29.8148 75.0794 29.8148H67.3444ZM72.0973 25.808H75.6941C77.0613 25.808 77.8871 25.4802 78.4651 24.7334C78.7588 24.3601 79.1717 23.6953 79.1717 22.4568C79.1717 21.2184 78.7588 20.3532 77.933 19.7249C77.4375 19.3515 76.7768 19.1512 75.6574 19.1512H72.1065V25.808H72.0973Z" fill="black"/>
</g>
</g>
<defs>
<clipPath id="clip0_5228_76186">
<rect width="84" height="35" fill="white"/>
</clipPath>
<clipPath id="clip1_5228_76186">
<rect width="84.2593" height="35" fill="white" transform="translate(-0.132812)"/>
</clipPath>
</defs>
</svg>
